<svg id="Character" xmlns="http://www.w3.org/2000/svg" xmlns:xlink="http://www.w3.org/1999/xlink" viewBox="0 0 648.98 763.64"><defs><style>.cls-1{fill:#9c5338;}.cls-2{fill:#e6ebf0;}.cls-3{fill:url(#linear-gradient);}.cls-4{fill:url(#linear-gradient-2);}.cls-5{fill:#708897;}.cls-6{fill:#37596e;}.cls-7{fill:#0e2138;}.cls-8{fill:url(#linear-gradient-3);}.cls-9{fill:#5a7078;}.cls-10{fill:#7d8e95;}.cls-11{fill:url(#radial-gradient);}.cls-12{fill:#ffbb1b;}.cls-13{fill:url(#linear-gradient-4);}.cls-14{fill:url(#radial-gradient-2);}.cls-15{fill:url(#radial-gradient-3);}.cls-16{fill:url(#radial-gradient-4);}.cls-17{fill:#2d383d;}.cls-18{fill:url(#radial-gradient-5);}.cls-19{fill:url(#radial-gradient-6);}.cls-20{fill:url(#linear-gradient-5);}.cls-21{fill:#60727a;}.cls-22{fill:url(#radial-gradient-7);}.cls-23{fill:url(#radial-gradient-8);}.cls-24{fill:url(#radial-gradient-9);}.cls-25{fill:#ec1966;}.cls-26{fill:#b6c0ca;}.cls-27{fill:url(#radial-gradient-10);}.cls-28{fill:url(#radial-gradient-11);}.cls-29{fill:url(#linear-gradient-6);}.cls-30{fill:url(#radial-gradient-12);}.cls-31{fill:url(#linear-gradient-7);}.cls-32{fill:url(#linear-gradient-8);}.cls-33{fill:url(#radial-gradient-13);}.cls-34{fill:url(#linear-gradient-9);}.cls-35{fill:url(#linear-gradient-10);}.cls-36{fill:url(#radial-gradient-14);}.cls-37{fill:url(#radial-gradient-15);}.cls-38{fill:url(#radial-gradient-16);}.cls-39{fill:url(#radial-gradient-17);}.cls-40{fill:url(#radial-gradient-18);}.cls-41{fill:url(#radial-gradient-19);}.cls-42{fill:url(#radial-gradient-20);}.cls-43{fill:url(#radial-gradient-21);}.cls-44{fill:url(#radial-gradient-22);}.cls-45{fill:url(#radial-gradient-23);}.cls-46{fill:url(#radial-gradient-24);}.cls-47{fill:url(#radial-gradient-25);}.cls-48{fill:url(#radial-gradient-26);}.cls-49{fill:#3a3244;}.cls-50{fill:url(#radial-gradient-27);}.cls-51{fill:url(#radial-gradient-28);}.cls-52{fill:url(#radial-gradient-29);}.cls-53{fill:#b6c5d3;}.cls-54{fill:url(#linear-gradient-11);}.cls-55{fill:#233549;}.cls-56{fill:url(#radial-gradient-30);}.cls-57{fill:url(#linear-gradient-12);}.cls-58{fill:url(#linear-gradient-13);}.cls-59{fill:#192b41;}.cls-60{fill:url(#radial-gradient-31);}.cls-61{fill:url(#linear-gradient-14);}.cls-62{fill:url(#linear-gradient-15);}.cls-63{fill:#aed2ea;}.cls-64{fill:url(#linear-gradient-16);}.cls-65{fill:url(#linear-gradient-17);}.cls-66{fill:url(#linear-gradient-18);}.cls-67{fill:url(#linear-gradient-19);}.cls-68{fill:url(#linear-gradient-20);}.cls-69{fill:#cde3f2;}.cls-70{fill:#fff;}.cls-71{fill:url(#radial-gradient-32);}.cls-72{fill:url(#radial-gradient-33);}.cls-73{fill:#020202;}.cls-74{fill:url(#radial-gradient-34);}.cls-75{fill:url(#linear-gradient-21);}.cls-76{fill:url(#radial-gradient-35);}.cls-77{fill:url(#radial-gradient-36);}.cls-78{fill:url(#radial-gradient-37);}.cls-79{fill:url(#linear-gradient-22);}.cls-80{fill:url(#linear-gradient-23);}.cls-81{fill:url(#linear-gradient-24);}.cls-82{opacity:0.4;}.cls-83{fill:url(#linear-gradient-25);}.cls-84{fill:url(#linear-gradient-26);}.cls-85{fill:url(#linear-gradient-27);}.cls-86{fill:url(#linear-gradient-28);}.cls-87{fill:#a80000;}.cls-88{fill:url(#radial-gradient-38);}.cls-89{fill:url(#radial-gradient-39);}.cls-90{fill:url(#radial-gradient-40);}.cls-91{fill:url(#radial-gradient-41);}.cls-92{fill:#720707;}.cls-93{fill:url(#radial-gradient-42);}.cls-94{fill:url(#radial-gradient-43);}.cls-95{fill:#7b3b27;}.cls-96{fill:url(#linear-gradient-29);}.cls-97{fill:url(#linear-gradient-30);}.cls-98{fill:url(#linear-gradient-31);}.cls-99{fill:url(#linear-gradient-32);}</style><linearGradient id="linear-gradient" x1="229.79" y1="735.37" x2="238.43" y2="709.11" gradientTransform="matrix(-1, 0.05, 0.05, 1, 740.92, -16.93)" gradientUnits="userSpaceOnUse"><stop offset="0" stop-color="#e6ebf0"/><stop offset="1" stop-color="#b6c5d3"/></linearGradient><linearGradient id="linear-gradient-2" x1="196.65" y1="724.46" x2="202.87" y2="727.91" xlink:href="#linear-gradient"/><linearGradient id="linear-gradient-3" x1="282.41" y1="491.18" x2="237.58" y2="511.87" gradientTransform="matrix(-1, 0.05, 0.05, 1, 740.92, -16.93)" gradientUnits="userSpaceOnUse"><stop offset="0.01" stop-color="#001423"/><stop offset="1" stop-color="#0e2138"/></linearGradient><radialGradient id="radial-gradient" cx="417.17" cy="1071.54" r="7.95" gradientTransform="matrix(-0.55, 0.02, 0.02, 0.55, 590.99, 149.66)" gradientUnits="userSpaceOnUse"><stop offset="0" stop-color="#829196"/><stop offset="1" stop-color="#2d383d"/></radialGradient><linearGradient id="linear-gradient-4" x1="537.64" y1="347.98" x2="536.78" y2="368.09" gradientTransform="matrix(-1, 0.05, 0.05, 1, 740.92, -16.93)" xlink:href="#radial-gradient"/><radialGradient id="radial-gradient-2" cx="717.14" cy="339.47" r="25.69" gradientTransform="matrix(-0.51, 0.02, 0.02, 0.51, 581.95, 179.04)" gradientUnits="userSpaceOnUse"><stop offset="0" stop-color="#393f41"/><stop offset="1"/></radialGradient><radialGradient id="radial-gradient-3" cx="544.25" cy="537.56" r="52.66" gradientTransform="matrix(-0.51, 0.04, 0.04, 0.51, 572.9, 174.6)" xlink:href="#radial-gradient"/><radialGradient id="radial-gradient-4" cx="244.57" cy="743.61" r="40.16" gradientTransform="matrix(-0.51, 0.04, 0.04, 0.51, 572.9, 174.6)" xlink:href="#radial-gradient"/><radialGradient id="radial-gradient-5" cx="313.49" cy="680.29" r="32.31" gradientTransform="matrix(-0.51, 0.02, 0.02, 0.51, 581.95, 179.04)" xlink:href="#radial-gradient"/><radialGradient id="radial-gradient-6" cx="352.21" cy="816.58" r="16.35" gradientTransform="matrix(-0.51, 0.02, 0.02, 0.51, 581.95, 179.04)" xlink:href="#radial-gradient"/><linearGradient id="linear-gradient-5" x1="295.89" y1="478.53" x2="300.49" y2="476.23" gradientTransform="matrix(-1, 0.05, 0.05, 1, 740.92, -16.93)" gradientUnits="userSpaceOnUse"><stop offset="0" stop-color="#829196"/><stop offset="1" stop-color="#5a7078"/></linearGradient><radialGradient id="radial-gradient-7" cx="392.42" cy="324.14" r="34.18" gradientTransform="matrix(-1, 0.05, 0.05, 1, 740.92, -16.93)" gradientUnits="userSpaceOnUse"><stop offset="0" stop-color="#ca6f44"/><stop offset="1" stop-color="#9c5338"/></radialGradient><radialGradient id="radial-gradient-8" cx="446.99" cy="336.34" r="11.75" xlink:href="#radial-gradient-7"/><radialGradient id="radial-gradient-9" cx="458.18" cy="338.39" r="6.67" gradientTransform="matrix(-1, 0.05, 0.05, 1, 740.92, -16.93)" gradientUnits="userSpaceOnUse"><stop offset="0" stop-color="#ca6f44"/><stop offset="0.37" stop-color="#c76d43"/><stop offset="0.62" stop-color="#bf6841"/><stop offset="0.82" stop-color="#b05f3d"/><stop offset="1" stop-color="#9c5338"/></radialGradient><radialGradient id="radial-gradient-10" cx="613.52" cy="279.16" r="9.73" gradientTransform="matrix(-0.51, 0.02, 0.02, 0.51, 581.95, 179.04)" gradientUnits="userSpaceOnUse"><stop offset="0" stop-color="#e6faff"/><stop offset="1" stop-color="#cdd4da"/></radialGradient><radialGradient id="radial-gradient-11" cx="643.41" cy="281.67" r="11.7" xlink:href="#radial-gradient-10"/><linearGradient id="linear-gradient-6" x1="579.44" y1="645.62" x2="579.44" y2="624.46" gradientTransform="matrix(-1, 0.05, 0.05, 1, 740.92, -16.93)" gradientUnits="userSpaceOnUse"><stop offset="0" stop-color="#abbfc5"/><stop offset="1" stop-color="#7e9ca7"/></linearGradient><radialGradient id="radial-gradient-12" cx="955.15" cy="698.45" r="132.7" gradientTransform="matrix(-0.51, 0.02, 0.02, 0.51, 581.95, 179.04)" gradientUnits="userSpaceOnUse"><stop offset="0" stop-color="#353e42"/><stop offset="1"/></radialGradient><linearGradient id="linear-gradient-7" x1="575.56" y1="645.27" x2="575.56" y2="624.58" xlink:href="#linear-gradient-5"/><linearGradient id="linear-gradient-8" x1="194.96" y1="664.82" x2="194.96" y2="643.83" xlink:href="#linear-gradient-6"/><radialGradient id="radial-gradient-13" cx="206.69" cy="729.72" r="132.7" xlink:href="#radial-gradient-12"/><linearGradient id="linear-gradient-9" x1="190.48" y1="661.36" x2="190.48" y2="640.67" xlink:href="#linear-gradient-5"/><linearGradient id="linear-gradient-10" x1="494.96" y1="529.7" x2="492.37" y2="525.39" gradientTransform="matrix(-1, 0.05, 0.05, 1, 740.92, -16.93)" gradientUnits="userSpaceOnUse"><stop offset="0" stop-color="#ff5b77"/><stop offset="1" stop-color="#ff9ebf"/></linearGradient><radialGradient id="radial-gradient-14" cx="683.62" cy="395.06" r="13.24" gradientTransform="matrix(-0.51, 0.02, 0.02, 0.51, 581.95, 179.04)" gradientUnits="userSpaceOnUse"><stop offset="0" stop-color="#353e42"/><stop offset="1" stop-color="#1f262a"/></radialGradient><radialGradient id="radial-gradient-15" cx="697.03" cy="329.15" r="7.51" gradientTransform="matrix(-0.51, 0.02, 0.02, 0.51, 581.95, 179.04)" xlink:href="#radial-gradient"/><radialGradient id="radial-gradient-16" cx="691.81" cy="616.25" r="24.4" gradientTransform="matrix(-0.51, 0.02, 0.02, 0.51, 581.95, 179.04)" xlink:href="#radial-gradient"/><radialGradient id="radial-gradient-17" cx="653.09" cy="518.69" r="30.39" xlink:href="#radial-gradient-14"/><radialGradient id="radial-gradient-18" cx="554.67" cy="554.74" r="52.65" gradientTransform="matrix(-0.51, 0.02, 0.02, 0.51, 581.95, 179.04)" xlink:href="#radial-gradient"/><radialGradient id="radial-gradient-19" cx="254.99" cy="760.77" r="40.16" gradientTransform="matrix(-0.51, 0.02, 0.02, 0.51, 581.95, 179.04)" xlink:href="#radial-gradient"/><radialGradient id="radial-gradient-20" cx="170.87" cy="913.4" r="60.05" gradientTransform="matrix(-0.51, 0.02, 0.02, 0.51, 581.95, 179.04)" xlink:href="#radial-gradient"/><radialGradient id="radial-gradient-21" cx="548.45" cy="688.86" r="73.67" gradientTransform="matrix(-0.51, 0.02, 0.02, 0.51, 581.95, 179.04)" xlink:href="#radial-gradient"/><radialGradient id="radial-gradient-22" cx="165.28" cy="746.95" r="68.76" gradientTransform="matrix(-0.51, 0.02, 0.02, 0.51, 581.95, 179.04)" xlink:href="#radial-gradient"/><radialGradient id="radial-gradient-23" cx="1341.34" cy="879.63" r="8.07" gradientTransform="matrix(-0.3, 0.01, 0.01, 0.3, 583.67, 356.22)" xlink:href="#radial-gradient-10"/><radialGradient id="radial-gradient-24" cx="39.45" cy="913.28" r="23.97" xlink:href="#radial-gradient-10"/><radialGradient id="radial-gradient-25" cx="72.96" cy="959.56" r="8.07" gradientTransform="matrix(-0.3, 0.01, 0.01, 0.3, 583.67, 356.22)" xlink:href="#radial-gradient-10"/><radialGradient id="radial-gradient-26" cx="625.53" cy="454.45" r="3.43" xlink:href="#radial-gradient-10"/><radialGradient id="radial-gradient-27" cx="623.85" cy="402.6" r="18.39" xlink:href="#radial-gradient-10"/><radialGradient id="radial-gradient-28" cx="649.92" cy="376.82" r="9.09" xlink:href="#radial-gradient-10"/><radialGradient id="radial-gradient-29" cx="696.28" cy="360.8" r="11.06" xlink:href="#radial-gradient-10"/><linearGradient id="linear-gradient-11" x1="364.55" y1="728.9" x2="388.08" y2="695.01" gradientTransform="matrix(-1, 0.04, 0.04, 1, 744.01, -15.98)" xlink:href="#linear-gradient"/><radialGradient id="radial-gradient-30" cx="328.74" cy="473.04" r="78.75" gradientTransform="matrix(-0.39, -0.34, -0.82, 0.94, 919.43, 106.61)" gradientUnits="userSpaceOnUse"><stop offset="0.01" stop-color="#435c76"/><stop offset="1" stop-color="#233549"/></radialGradient><linearGradient id="linear-gradient-12" x1="461.36" y1="491.99" x2="372.57" y2="619.58" gradientTransform="matrix(-1, 0.05, 0.05, 1, 740.92, -16.93)" gradientUnits="userSpaceOnUse"><stop offset="0" stop-color="#13263c"/><stop offset="1" stop-color="#233549"/></linearGradient><linearGradient id="linear-gradient-13" x1="261.74" y1="364.98" x2="288.17" y2="420.16" gradientTransform="matrix(-1, 0.05, 0.05, 1, 740.92, -16.93)" gradientUnits="userSpaceOnUse"><stop offset="0.01" stop-color="#0e2138"/><stop offset="1" stop-color="#233549"/></linearGradient><radialGradient id="radial-gradient-31" cx="370.83" cy="484.43" r="52.13" gradientTransform="matrix(-0.51, 0.02, 0.02, 0.51, 581.95, 179.04)" gradientUnits="userSpaceOnUse"><stop offset="0.01" stop-color="#63778d"/><stop offset="1" stop-color="#435c76"/></radialGradient><linearGradient id="linear-gradient-14" x1="199.67" y1="443.82" x2="299.96" y2="351.28" xlink:href="#linear-gradient-3"/><linearGradient id="linear-gradient-15" x1="339.38" y1="192.03" x2="356.99" y2="197.31" gradientTransform="matrix(-1, 0.05, 0.05, 1, 740.92, -16.93)" gradientUnits="userSpaceOnUse"><stop offset="0" stop-color="#914d34"/><stop offset="0.41" stop-color="#8e4a32"/><stop offset="0.71" stop-color="#85412b"/><stop offset="0.98" stop-color="#75321e"/><stop offset="1" stop-color="#73301d"/></linearGradient><linearGradient id="linear-gradient-16" x1="178.02" y1="380.08" x2="263.86" y2="380.08" gradientTransform="matrix(-1, 0.05, 0.05, 1, 740.92, -16.93)" gradientUnits="userSpaceOnUse"><stop offset="0" stop-color="#ff2d66"/><stop offset="1" stop-color="#ec1966"/></linearGradient><linearGradient id="linear-gradient-17" x1="174.61" y1="360.97" x2="166.57" y2="357.23" xlink:href="#linear-gradient-10"/><linearGradient id="linear-gradient-18" x1="235.26" y1="339.68" x2="237.94" y2="336.23" gradientTransform="matrix(-1, 0.05, 0.05, 1, 740.92, -16.93)" gradientUnits="userSpaceOnUse"><stop offset="0" stop-color="#ec0077"/><stop offset="1" stop-color="#ff9ebf"/></linearGradient><linearGradient id="linear-gradient-19" x1="202.08" y1="350.55" x2="202.79" y2="370.05" gradientTransform="matrix(-1, 0.05, 0.05, 1, 740.92, -16.93)" gradientUnits="userSpaceOnUse"><stop offset="0" stop-color="#e12126"/><stop offset="1" stop-color="#a41217"/></linearGradient><linearGradient id="linear-gradient-20" x1="202.09" y1="350.72" x2="202.69" y2="367.47" xlink:href="#linear-gradient-19"/><radialGradient id="radial-gradient-32" cx="338.27" cy="219.8" r="27.98" gradientTransform="matrix(-1, 0.05, 0.05, 1, 740.92, -16.93)" gradientUnits="userSpaceOnUse"><stop offset="0" stop-color="#ca6f44"/><stop offset="0.11" stop-color="#c16a42"/><stop offset="0.41" stop-color="#ac5d3c"/><stop offset="0.71" stop-color="#a05639"/><stop offset="1" stop-color="#9c5338"/></radialGradient><radialGradient id="radial-gradient-33" cx="483.24" cy="358.02" r="7.59" xlink:href="#radial-gradient-9"/><radialGradient id="radial-gradient-34" cx="504.92" cy="358.6" r="9.86" xlink:href="#radial-gradient-7"/><linearGradient id="linear-gradient-21" x1="342.16" y1="59.88" x2="342.16" y2="111.98" gradientTransform="matrix(-1, 0.05, 0.05, 1, 740.92, -16.93)" xlink:href="#radial-gradient-7"/><radialGradient id="radial-gradient-35" cx="111.47" cy="-1192.3" r="46.08" gradientTransform="matrix(-0.29, 0.01, 0.01, 0.26, 449.9, 466.97)" xlink:href="#radial-gradient-7"/><radialGradient id="radial-gradient-36" cx="2092.96" cy="-656.49" r="46.09" gradientTransform="matrix(-0.31, -0.43, -0.3, 0.22, 818.41, 1185.09)" xlink:href="#radial-gradient-7"/><radialGradient id="radial-gradient-37" cx="2791.78" cy="492.63" r="46.08" gradientTransform="matrix(0.17, -0.5, -0.36, -0.12, 154.61, 1603.08)" xlink:href="#radial-gradient-7"/><linearGradient id="linear-gradient-22" x1="319.53" y1="118.96" x2="319.53" y2="106.69" gradientTransform="matrix(-1, 0.05, 0.05, 1, 740.92, -16.93)" gradientUnits="userSpaceOnUse"><stop offset="0" stop-color="#9c5338"/><stop offset="1" stop-color="#7e3420"/></linearGradient><linearGradient id="linear-gradient-23" x1="366.63" y1="118.96" x2="366.63" y2="106.69" xlink:href="#linear-gradient-22"/><linearGradient id="linear-gradient-24" x1="344.79" y1="162.82" x2="344.79" y2="154.78" xlink:href="#linear-gradient-22"/><linearGradient id="linear-gradient-25" x1="347.95" y1="159.12" x2="345.9" y2="131.86" gradientTransform="matrix(-1, 0.05, 0.05, 1, 740.92, -16.93)" xlink:href="#radial-gradient-7"/><linearGradient id="linear-gradient-26" x1="333.25" y1="146.65" x2="335.46" y2="148.01" gradientTransform="matrix(-1, 0.05, 0.05, 1, 740.92, -16.93)" xlink:href="#radial-gradient-7"/><linearGradient id="linear-gradient-27" x1="356.73" y1="146.92" x2="355.25" y2="147.49" gradientTransform="matrix(-1, 0.05, 0.05, 1, 740.92, -16.93)" xlink:href="#radial-gradient-7"/><linearGradient id="linear-gradient-28" x1="344.65" y1="150.97" x2="344.65" y2="145.18" gradientTransform="matrix(-1, 0.05, 0.05, 1, 740.92, -16.93)" gradientUnits="userSpaceOnUse"><stop offset="0" stop-color="#6d2d15"/><stop offset="1" stop-color="#9c5338"/></linearGradient><radialGradient id="radial-gradient-38" cx="343.41" cy="170.01" r="10.79" gradientTransform="matrix(-1, 0.05, 0.05, 1, 740.92, -16.93)" gradientUnits="userSpaceOnUse"><stop offset="0" stop-color="#a80000"/><stop offset="1" stop-color="#a80000"/></radialGradient><radialGradient id="radial-gradient-39" cx="-74.55" cy="-1124.23" r="33.39" gradientTransform="matrix(-0.26, 0.02, 0.02, 0.26, 403.31, 462.48)" gradientUnits="userSpaceOnUse"><stop offset="0" stop-color="#a8211a"/><stop offset="1" stop-color="#a80000"/></radialGradient><radialGradient id="radial-gradient-40" cx="343.19" cy="165.45" r="12.48" xlink:href="#radial-gradient-38"/><radialGradient id="radial-gradient-41" cx="343.04" cy="165.44" r="9.53" gradientTransform="matrix(-1, 0.05, 0.05, 1, 740.92, -16.93)" xlink:href="#radial-gradient-39"/><radialGradient id="radial-gradient-42" cx="319.41" cy="106.57" r="11.92" gradientTransform="matrix(-1, 0.05, 0.05, 1, 740.92, -16.93)" gradientUnits="userSpaceOnUse"><stop offset="0"/><stop offset="1"/></radialGradient><radialGradient id="radial-gradient-43" cx="3158.16" cy="106.57" r="12.44" gradientTransform="translate(-1964.74 106.8) rotate(-2.62) scale(0.74 1)" xlink:href="#radial-gradient-42"/><linearGradient id="linear-gradient-29" x1="318.15" y1="128.15" x2="318.15" y2="120.39" gradientTransform="matrix(-1, 0.05, 0.05, 1, 740.92, -16.93)" gradientUnits="userSpaceOnUse"><stop offset="0.01" stop-color="#2f1b00"/><stop offset="1"/></linearGradient><linearGradient id="linear-gradient-30" x1="318.15" y1="124.32" x2="318.15" y2="126.33" gradientTransform="matrix(-1, 0.05, 0.05, 1, 740.92, -16.93)" gradientUnits="userSpaceOnUse"><stop offset="0"/><stop offset="1" stop-color="#77726d"/></linearGradient><linearGradient id="linear-gradient-31" x1="363.88" y1="128.14" x2="363.88" y2="120.33" xlink:href="#linear-gradient-29"/><linearGradient id="linear-gradient-32" x1="363.88" y1="124.29" x2="363.88" y2="126.31" xlink:href="#linear-gradient-30"/></defs><title>Ludmyla-bike</title><path class="cls-1" d="M562.71,683s-3.64-7.9-4-13.09-16.29-6-17.18-5.64-7.73,10.43-7.73,10.43-6.73,22.12-6.35,23.19,1.41,8.82,3.54,10.62,12.66,4.45,16.63,2.31Z" transform="translate(-66.28 -3.27)"/><path class="cls-2" d="M573.12,698s-2.38-14.07-8.27-14.5-17.66-.23-22.47,8-4.22,13.68-7.37,12.79-7.56-6.57-7.56-6.57-4.93,5.76-5,11.3-1.18,12.15-4.85,15.09-10.46,13.28-3.19,20.9,16.82-2.85,16.82-2.85l19.1-13.32,18.37-6.72Z" transform="translate(-66.28 -3.27)"/><path class="cls-3" d="M517.71,726.81a10.28,10.28,0,0,0,5.49-8.55c.16-4.16,3.51-14,3.51-14l2.18-4.9c1.56,1.75,4.09,4.3,6.12,4.87,3.15.89,2.56-4.62,7.37-12.79a14.1,14.1,0,0,1,5.54-5.23c6,.47,12.42,1,15.37,1.16,6.25.41,4.93,9.46,4.93,9.46l1.29,20.76-.83,4.47-18.37,6.72-19.1,13.32s-9.55,10.47-16.82,2.85a27.37,27.37,0,0,0-1.62-5.12C510.86,735.77,515,728.32,517.71,726.81Z" transform="translate(-66.28 -3.27)"/><path d="M539.54,705.06c1.57-3.53,10.84-12.6,19.38-15.07a17,17,0,0,1,12.28.93c-1.33-3.58-3.4-7.22-6.35-7.43-5.9-.42-17.66-.23-22.47,8s-4.22,13.68-7.37,12.79c-3-.84-7-5.9-7.52-6.51a14.51,14.51,0,0,0,3.11,8.44C535.36,711.82,538,708.59,539.54,705.06Zm-28.19,34a11.26,11.26,0,0,0,3,5.85c7.27,7.62,16.82-2.85,16.82-2.85l8.86-6.17.34-11.89s-3.67-4.67-7.39-2.77-1,8.34-4,9.87-4.37-4.65-7.06-3.14C519.67,729.26,513.26,733.82,511.35,739.1Z" transform="translate(-66.28 -3.27)"/><path d="M577.11,717.18s.18-18.69-5.86-22.22-20,1.61-24.55,7.7-4.81,23.39-4.81,23.39l14.4-2.73Z" transform="translate(-66.28 -3.27)"/><path class="cls-2" d="M580.64,726.35s-1.4-7.89-4.63-10.51-10.91-4-13-3.56-22,10.7-23.67,11.81-1.81,6-4.14,7.8S519.49,743,516.76,743.8s4.78,6.36,5.82,6.31,9.6-1.82,10.62-2.22,12.13-7.12,12.13-7.12,11.83-6.08,13.88-6.52S580.64,726.35,580.64,726.35Z" transform="translate(-66.28 -3.27)"/><path class="cls-4" d="M562.86,712.34l.19-.06c2.05-.44,9.73,1,13,3.56s4.63,10.51,4.63,10.51l-5.57,2.13-5.68-6.11S568.31,713.6,562.86,712.34Z" transform="translate(-66.28 -3.27)"/><path class="cls-5" d="M543.85,738.76c-2.65,2.54-6.63,6.18-8.67,7-1.74.67-7.93,3.31-9.7,4.06l-3.65-1s14.29-5.15,15.61-6.6,5.2-7.15,5.2-7.15,23.25-13.52,26.72-13.33S581,726.34,581,726.34a23.62,23.62,0,0,1-1.92,2.34c-2.31-1.3-6.93-3.76-9.22-3.91C566.72,724.57,546.5,736.22,543.85,738.76Z" transform="translate(-66.28 -3.27)"/><path class="cls-6" d="M542.55,748.16c-3.34,2.57-12.31,3-12.31,3l-4.76-1.35c1.77-.75,8-3.39,9.7-4.06,2-.79,6-4.43,8.67-7s22.87-14.19,26-14c2.29.15,6.91,2.61,9.22,3.91-8.73,9.4-26.06,13.46-30.21,13.65C544.37,742.54,545.89,745.58,542.55,748.16Z" transform="translate(-66.28 -3.27)"/><path class="cls-7" d="M531.23,688.23s6-10.25,10.19-12,14.6.48,18,.32,5.34-9.06,1.11-17.69-5.24-22.39-6.63-27.7-6.49-49.57-16.76-64.44-10.29-23.69-12.73-35.09-3-24,2.32-50,16.69-37.58,14-70.83c-2.79-34.79-27-29.45-27-29.45s-26.56,23.08-27.59,25.81-20.6,58.34-20.6,58.34.29,44,13.87,79.67c9.83,25.82,17.83,37.54,27.61,67s15.13,28.84,13.39,41.2-1.59,15.41.81,17.6,6.25,2.4,5.62,5.5S529.07,683,531.23,688.23Z" transform="translate(-66.28 -3.27)"/><path class="cls-8" d="M479.43,545.23c-13.58-35.68-13.87-79.67-13.87-79.67s19.57-55.61,20.6-58.34,27.59-25.81,27.59-25.81,24.25-5.34,27,29.45A111.2,111.2,0,0,1,541,426.3c-8-1.84-13.53,6.48-20.73,28.12-7.59,22.79-1.94,70.86-4.13,79.59s2.16,28.37-2.61,37.22-3,48.46-3,48.46l-.76.47c-.88-2.38-1.81-5-2.78-7.92C497.26,582.77,489.26,571.05,479.43,545.23Z" transform="translate(-66.28 -3.27)"/><path class="cls-9" d="M442.14,669.29a44.91,44.91,0,0,0,4,4.07l-.26,2.76c3.63,3.86,11.6,8.38,11.6,8.38l-.55-3.62a34.42,34.42,0,0,0,12,3.68,105.46,105.46,0,0,0,12.26.22l1.79,2.88,51.36-2.93a7.28,7.28,0,0,0,0-3.74l3.48-.35a7,7,0,0,1-.76,6.18c-5.5.35-44.18,2.78-55.19,3.28-11.87.55-26.14-1.1-35.67-8.34S433.83,672,433.83,672Z" transform="translate(-66.28 -3.27)"/><path d="M537.79,680.64l8.68-3.08s4.12,6.33.12,11.12l-8.91-1.9-.65,0A7,7,0,0,0,537.79,680.64Z" transform="translate(-66.28 -3.27)"/><path class="cls-10" d="M534.33,684.73,483,687.66l-1.79-2.88c17.42-.42,43.75-2.87,53.13-3.79A7.28,7.28,0,0,1,534.33,684.73Z" transform="translate(-66.28 -3.27)"/><path class="cls-10" d="M445.91,676.12l.26-2.76A51.07,51.07,0,0,0,457,680.88l.55,3.62S449.54,680,445.91,676.12Z" transform="translate(-66.28 -3.27)"/><path d="M393.39,736.4a11.57,11.57,0,0,1,1.54-.71c1.89-.72,5.06-1.38,6.65,1.31a7.5,7.5,0,0,1-2.7,10.48c-3.38,1.71-26.75,13.38-28.69,12.21s-5.95-7-1.09-11Z" transform="translate(-66.28 -3.27)"/><path class="cls-11" d="M393.89,748.32s-.59-6.58-2.48-6.81S378.18,748,378.18,748s-.08,5.66,3.1,6.46Z" transform="translate(-66.28 -3.27)"/><path class="cls-12" d="M396.34,746.64s-.57-5.94-3.13-7.09c0,0,4.86-4,6.46-3.1s3.36,5.2,1,8.44Z" transform="translate(-66.28 -3.27)"/><path class="cls-13" d="M214.24,388.64c2.31-.1,7.06-.92,12.93-5.23a1.65,1.65,0,0,0,.65-1.13l1.86-15.9a.28.28,0,0,0,0-.09l.84-13a1.62,1.62,0,0,0-1.51-1.73,15.57,15.57,0,0,0-1.84,0c-3,.14-10.42,1.11-14.31,7.17a1.58,1.58,0,0,0-.25.82l-1.05,27.37a1.61,1.61,0,0,0,1.44,1.68,7.1,7.1,0,0,0,1.23,0Z" transform="translate(-66.28 -3.27)"/><path class="cls-14" d="M228.36,366.46l.85-13s-10.1-.69-14.67,6.42l-1,27.38s5.49.61,13-4.91Z" transform="translate(-66.28 -3.27)"/><polygon points="495.87 635.61 368.91 652.34 373.95 661.89 496.86 644.76 495.87 635.61"/><path d="M524.69,568.65l-39.76,6.46-22.67,3.69a59.36,59.36,0,0,1-10.15.87,91.37,91.37,0,0,1-37.52-8c-13.7-6.28-25.94-16.62-37.17-26.51-7.22-6.35-14-13.17-20.78-19.95L285,453.82l-12.3-12.25c-3.34-3.33-7.35-6.79-8.12-11.65-.58-3.66,5.16-4.07,5.73-.43.46,2.92,4.45,6,6.58,8.16l11.85,11.81,37.81,37.66,33.85,33.71c6.81,6.78,13.58,13.58,20.78,19.95,11.37,10.06,23.72,20.31,37.7,26.49a84.15,84.15,0,0,0,35.42,6.65,68.7,68.7,0,0,0,9.45-1.16l24.12-3.92,36.41-5.92c3.66-.6,4.06,5.14.43,5.73Z" transform="translate(-66.28 -3.27)"/><path class="cls-15" d="M269.94,434.89s-3.85-3.9-3-7.92a3,3,0,0,1,3.32,2.52c.46,2.92,4.45,6,6.58,8.16l11.85,11.81,37.81,37.66,27.22,27.11L352.27,517Z" transform="translate(-66.28 -3.27)"/><path class="cls-16" d="M456.77,577.46s-23.15-1.31-27.12-2.93l-.95-3.75a88.35,88.35,0,0,0,25.58,3.14,68.7,68.7,0,0,0,9.45-1.16l24.12-3.92,27.26-4.44,2,3.1Z" transform="translate(-66.28 -3.27)"/><path d="M581.87,636.55,527.3,573.37c-15.49-17.93-30.65-36-47.58-52.62-4-3.94-8.12-7.81-12.47-11.39a42.27,42.27,0,0,0-4.86-3.55c-.34-.2-.69-.39-1-.58-.12-.06-1.14-.49-.46-.24a6.37,6.37,0,0,0-.78-.21c.78.15-.3.2.59,0-3.57.95-5.36-4.52-1.78-5.47,2.52-.67,4.93.65,7,2a74.58,74.58,0,0,1,9,7.12c7.08,6.26,13.7,13,20.21,19.87,5.31,5.55,10.41,11.21,15.43,17l65.19,75.47,10,11.57c2.39,2.78-1.46,7.05-3.88,4.25Z" transform="translate(-66.28 -3.27)"/><path class="cls-17" d="M514,554.2s1.17-.83,2.7-1.85l41.77,48.36-3.2.5Z" transform="translate(-66.28 -3.27)"/><path class="cls-17" d="M458.92,499.28c2.52-.67,4.93.65,7,2a74.58,74.58,0,0,1,9,7.12c6.74,6,13.06,12.4,19.28,18.9l-2.67,1.49s-21.88-25.47-29.37-25.7a13.6,13.6,0,0,1-5.19-1.23A2.46,2.46,0,0,1,458.92,499.28Z" transform="translate(-66.28 -3.27)"/><path d="M468.38,466.6q-7.51,33.67-15,67.34-11,49.35-22,98.71l-3,13.57c-1.29,5.78-10.27,3.76-9-2q7.51-33.67,15-67.34,11-49.35,22-98.71l3-13.57c1.29-5.78,10.27-3.76,9,2Z" transform="translate(-66.28 -3.27)"/><path class="cls-18" d="M439.58,579.65l-5.7-.75c.15-.69.3-1.37.46-2.06q8.18-36.65,16.37-73.3l3.1,9.87Z" transform="translate(-66.28 -3.27)"/><path class="cls-19" d="M430.33,620.73l-5.86.27q3.12-13.93,6.23-27.88l4.55.92Z" transform="translate(-66.28 -3.27)"/><path class="cls-20" d="M455.54,481.9l.84-3.77,3-13.57c1.29-5.78,10.27-3.76,9,2q-1.78,8-3.59,16.06A10.9,10.9,0,0,0,455.54,481.9Z" transform="translate(-66.28 -3.27)"/><path class="cls-21" d="M482.31,457.26l9.6-14.36a36.7,36.7,0,0,0,5.81-.92c11.43-2.62,16.57-1.74,18.9-.4-.42,1.58-.77,2.64-.77,2.64C508.86,450.68,482.31,457.26,482.31,457.26Z" transform="translate(-66.28 -3.27)"/><path class="cls-17" d="M497.72,442a36.7,36.7,0,0,1-5.81.92l10.51-15.71s9.91-1.22,13.86,1.28c2.83,1.8,1.38,9.11.34,13.11C514.29,440.24,509.15,439.36,497.72,442Z" transform="translate(-66.28 -3.27)"/><path d="M484.87,454.46s27.22-8.53,27.88-10.87-24.82,2.29-24.82,2.29Z" transform="translate(-66.28 -3.27)"/><path class="cls-22" d="M324.91,353.61s31.14-6.79,56-25.57S403,307.85,403,307.85l-15.06-10.44-8.84-.36s-12.19,10.15-14.4,12.17-30,23.23-30,23.23Z" transform="translate(-66.28 -3.27)"/><path class="cls-1" d="M294,352.91a2.12,2.12,0,0,1,.86-2.34,6.26,6.26,0,0,0,2-3l-.47-10.34a7.2,7.2,0,0,0,2.34-3.37c.48-1.94.1-6.14,2.18-6.81a5.68,5.68,0,0,1,4,.39s.32-1.55,3-.9a7,7,0,0,0,4.41,0,4.17,4.17,0,0,1,3.52,1.37,2.49,2.49,0,0,1,3.3,1c1.25,2.05-1.71,12.93-1.71,12.93l-13.79,12.9Z" transform="translate(-66.28 -3.27)"/><path class="cls-23" d="M300.1,349.81c.14-1.18-.19-2.18.53-3.38.54-.9,1.3-1.65,1.82-2.6a13,13,0,0,0,1.54-6.28,17.76,17.76,0,0,0-.31-3.59,6.83,6.83,0,0,0-.35-1.71c-.46-.85-.62-.6-1.32-1-1.24-.66-1.63-.82-1.58-2.48a3.17,3.17,0,0,1,.5-1.71,5.69,5.69,0,0,1,4,.4s.32-1.55,3-.9a7,7,0,0,0,4.41,0,4.17,4.17,0,0,1,3.52,1.37,2.49,2.49,0,0,1,3.3,1c1.25,2.05-1.71,12.93-1.71,12.93l-10.89,10.19a27.27,27.27,0,0,1-3,.9Z" transform="translate(-66.28 -3.27)"/><path class="cls-24" d="M297.8,337.4c2.14-.39,3.28-3.89,4-3.93s.94,1.69,1,5.43-3.53,7.78-3.53,7.78a19.85,19.85,0,0,1-4.42,3.94h0l.06-.05a6.26,6.26,0,0,0,2-3l-.41-9.06A2.29,2.29,0,0,1,297.8,337.4Z" transform="translate(-66.28 -3.27)"/><path class="cls-25" d="M277,347.84a24,24,0,0,0,8.78,0,45.14,45.14,0,0,1,11.07-.07s7.12-4.79,4.69-10.57c0,0-2.31-.33-6.35-.58s-12.56-1-15-.17S277,347.84,277,347.84Z" transform="translate(-66.28 -3.27)"/><path class="cls-25" d="M296.84,347.8a45.14,45.14,0,0,0-11.07.07,24,24,0,0,1-8.78,0s.81-10.54,3.22-11.36a4.5,4.5,0,0,1,.66-.17c1.26.71,1.52,3.81,1.52,3.81s13.91-.93,17-.2.91,4.27.91,4.27l.05.19A15.63,15.63,0,0,1,296.84,347.8Z" transform="translate(-66.28 -3.27)"/><path class="cls-26" d="M274.17,336.32a7.39,7.39,0,0,1,6.75-.16s2,8.25-3.93,11.68a4.47,4.47,0,0,1-2.7-2.46Z" transform="translate(-66.28 -3.27)"/><path class="cls-10" d="M277,347.84a4.47,4.47,0,0,1-2.7-2.46l-.09-6.71a2.72,2.72,0,0,1,2,.58,4,4,0,0,0,5.06.07C281.22,342,280.5,345.79,277,347.84Z" transform="translate(-66.28 -3.27)"/><path class="cls-9" d="M276.17,339.25a4,4,0,0,0,5.06.07c0,2.71-.73,6.47-4.24,8.52a4.47,4.47,0,0,1-2.7-2.46l0-1.59.23-.15s1.28,2.82,2.58,2.9c1,.07,1.92-2.59,2.32-3.88a3.85,3.85,0,0,0-3.69-.94,2.67,2.67,0,0,1-1.47.11l0-3.16A2.72,2.72,0,0,1,276.17,339.25Z" transform="translate(-66.28 -3.27)"/><path class="cls-27" d="M280,337.21s-3.88,0-4.84,1.22-1.05-1.1-1.05-1.1S277.25,334.6,280,337.21Z" transform="translate(-66.28 -3.27)"/><path class="cls-26" d="M256.38,349.93s-1.13-5.7,5.72-6.87a17.71,17.71,0,0,1,12.2,2.6s4.35-5.66.16-9.21c0,0-11.41-4.08-17.83.24s-9,10.19-7.91,15.61Z" transform="translate(-66.28 -3.27)"/><path class="cls-10" d="M271.46,340a5.21,5.21,0,0,0,4.72-.77c.63,3.12-1.88,6.39-1.88,6.39a17.71,17.71,0,0,0-12.2-2.6c-6.85,1.17-5.72,6.87-5.72,6.87l-4.32,1.34c0-.28,0-.55,0-.85C252.93,337.44,268,339.05,271.46,340Z" transform="translate(-66.28 -3.27)"/><path class="cls-9" d="M271.46,340a5.21,5.21,0,0,0,4.72-.77c.63,3.12-1.88,6.39-1.88,6.39a17.71,17.71,0,0,0-12.2-2.6c-6.85,1.17-5.72,6.87-5.72,6.87l-.54.17a6,6,0,0,1-.08-1c.05-5.32,4.58-6.83,8.45-7.15a42.78,42.78,0,0,1,8.7.56,5.38,5.38,0,0,0-3.73-1.93c-4.63-.51-14.14-.94-16.44,8.51a16.24,16.24,0,0,1-.68,2.18c0-.28,0-.55,0-.85C252.93,337.44,268,339.05,271.46,340Z" transform="translate(-66.28 -3.27)"/><path class="cls-28" d="M272.33,337.12s-8.09-.78-15,2.85-8.25,8.28-8.25,8.28,1.47-8.69,9.25-11.64A17.65,17.65,0,0,1,272.33,337.12Z" transform="translate(-66.28 -3.27)"/><path class="cls-29" d="M73.83,636.5l58.7,2.29,54,2.11q-16.06-19.14-32.14-38.26L112,552.24l-.26-.31c-.48-.57.49-1.19,1-.63l37.65,44.81L188,641l.81,0,3.3-48.45q2.49-36.45,5-72.89l.15-2.13c0-.73,1.2-.79,1.15,0l-3.89,57Q192.24,607.74,190,641h.11l36.66-36.5,50.57-50.32,1.12-1.12c.53-.52,1.38.25.85.77l-40.72,40.54q-23.46,23.34-46.91,46.69l51.59,2,64.59,2.52h.27c.73,0,.79,1.17.05,1.15l-58.71-2.29-58.9-2.3-.7.69c0,.07,0,.14,0,.21l31.77,37.83L264,731.32l.26.32c.48.57-.49,1.18-1,.62L225.6,687.45l-35.88-42.71L187,684.84q-2.49,36.43-5,72.89l-.15,2.13c-.05.73-1.2.79-1.15,0l3.89-57q2-29.4,4-58.8l-28.5,28.36-50.56,50.33-1.13,1.11c-.52.53-1.37-.25-.84-.77l40.72-40.53,39.88-39.7-.7-.84-48.75-1.9-64.59-2.52h-.27C73.15,637.62,73.08,636.47,73.83,636.5Z" transform="translate(-66.28 -3.27)"/><path d="M66.42,644.32A128.45,128.45,0,1,0,188.86,510.14,128.44,128.44,0,0,0,66.42,644.32Zm9.9-.45a118.53,118.53,0,1,1,123.83,113A118.54,118.54,0,0,1,76.32,643.87Z" transform="translate(-66.28 -3.27)"/><path class="cls-30" d="M200.52,765.14a126.82,126.82,0,1,1,87.89-41.2,125.94,125.94,0,0,1-87.89,41.2ZM189.24,518.41A120.17,120.17,0,1,0,314.77,633,120.31,120.31,0,0,0,189.24,518.41Z" transform="translate(-66.28 -3.27)"/><path class="cls-31" d="M76.32,643.87A118.53,118.53,0,1,0,189.32,520,118.54,118.54,0,0,0,76.32,643.87Zm5.6-.26a112.93,112.93,0,1,1,118,107.66A112.93,112.93,0,0,1,81.92,643.61Z" transform="translate(-66.28 -3.27)"/><path class="cls-32" d="M462.08,671l57-14.36,52.34-13.2-41.52-27.57L475,579.49l-.35-.23c-.61-.4-.08-1.43.54-1L524,610.61l48.9,32.47.78-.2-10.5-47.42q-7.9-35.65-15.8-71.33c-.15-.69-.3-1.39-.46-2.08s.94-1.08,1.1-.36q6.16,27.88,12.35,55.77,7.2,32.58,14.42,65.14l.11,0q12.43-22.7,24.88-45.37l34.32-62.55.76-1.39c.36-.65,1.38-.12,1,.53q-13.82,25.2-27.64,50.38l-31.82,58,50.07-12.63,62.68-15.8.26-.07c.71-.18,1.07.91.35,1.1l-57,14.36-57.14,14.41-.48.87.05.2,41,27.25,54.84,36.4.34.23c.61.41.09,1.43-.53,1l-48.76-32.37-46.58-30.92q4.35,19.62,8.69,39.24,7.9,35.67,15.8,71.34c.15.69.3,1.38.46,2.08s-.94,1.08-1.1.35q-6.16-27.88-12.34-55.77-6.37-28.76-12.74-57.53L555,681.21l-34.31,62.55-.77,1.39a.57.57,0,0,1-1-.53l27.63-50.38,27.06-49.32-.92-.61-47.31,11.93-62.68,15.81-.26.07C461.72,672.3,461.36,671.2,462.08,671Z" transform="translate(-66.28 -3.27)"/><path d="M451.83,642.81A128.45,128.45,0,1,0,574.27,508.62,128.44,128.44,0,0,0,451.83,642.81Zm9.9-.46a118.53,118.53,0,1,1,123.83,113A118.53,118.53,0,0,1,461.73,642.35Z" transform="translate(-66.28 -3.27)"/><path class="cls-33" d="M585.93,763.62a126.82,126.82,0,1,1,87.89-41.2,125.94,125.94,0,0,1-87.89,41.2ZM574.65,516.9A120.17,120.17,0,1,0,700.18,631.45,120.31,120.31,0,0,0,574.65,516.9Z" transform="translate(-66.28 -3.27)"/><path class="cls-34" d="M461.73,642.35a118.53,118.53,0,1,0,113-123.82A118.54,118.54,0,0,0,461.73,642.35Zm5.6-.25a112.93,112.93,0,1,1,118,107.65A112.92,112.92,0,0,1,467.33,642.1Z" transform="translate(-66.28 -3.27)"/><path class="cls-25" d="M445.29,637.21c0-.13,0-.42,0-.85v0l0-.48v-.06c0-.17,0-.36,0-.56v-.08q0-.31.06-.66v-.07c0-.24.05-.49.08-.76v-.09c0-.26.05-.54.08-.83v-.11c0-.3.07-.61.11-.92v-.1c0-.33.07-.66.12-1v-.12c.05-.35.09-.72.14-1.09l0-.12c.05-.39.1-.79.16-1.2V628c.06-.42.12-.86.19-1.31v-.06a180.44,180.44,0,0,1,8.15-32.82h0c.5-1.43,1-2.87,1.59-4.33v0c.56-1.46,1.14-2.92,1.76-4.4h0a137.88,137.88,0,0,1,23.82-38.66h0l.07-.07c.75-.86,1.53-1.7,2.32-2.53l.28-.3c.81-.85,1.63-1.69,2.47-2.53h0a112.4,112.4,0,0,1,19.95-15.75c58.18-36,113.46-22.45,146.59-2.68s57.59,64.11,61.77,105.34c0,0-.41,0-1.07-.06h-.14l-.34,0-.29,0-.34,0-.39,0-.34,0-.48-.06-.33,0-.6-.09-.27,0c-.61-.09-1.24-.2-1.88-.34l-.25,0-.71-.17-.33-.08-.63-.17-.35-.11-.6-.19-.35-.12-.57-.23-.33-.13-.58-.27-.27-.13a8.19,8.19,0,0,1-.77-.45s-6.7-71-69.55-99.23-110-1.3-126.71,9.82-46.72,47.59-50.62,100.7c0,0-6.81,2-10.89,1.07Z" transform="translate(-66.28 -3.27)"/><path class="cls-25" d="M182.18,513.43l-.13-.15c-.18-.2-.36-.42-.55-.67l0,0c-.2-.26-.41-.55-.62-.87a.05.05,0,0,1,0,0h0a22.28,22.28,0,0,1-2.8-6.54s28.59-4.11,62.59,8.74h0c1.27.48,2.56,1,3.85,1.52l.05,0c1.3.54,2.61,1.1,3.92,1.68h0c1.29.58,2.59,1.19,3.89,1.82l.11.05c1.31.64,2.62,1.31,3.94,2h0c16.8,8.85,34,22.33,49.15,42.75,0,0,28.64,39.25,23.08,100.12h0l-.06.66-11.14-4.67s9.48-69.47-36.05-108.82S205,516,184.25,515.19l-.06,0,0,0L184,515l-.07,0-.26-.19-.06,0a4.86,4.86,0,0,1-.41-.34l0,0c-.14-.12-.28-.26-.44-.41l-.12-.12Z" transform="translate(-66.28 -3.27)"/><path class="cls-35" d="M288.39,546.68s-26.25-20.38-35.59-23.4l3.67-1.32S277.4,532.8,288.39,546.68Z" transform="translate(-66.28 -3.27)"/><path d="M264.07,398.58s-15.73,0-21.67-4-6.4-14.28-6.4-14.28l8.36-10-2.47-12.16s-11.38,2.82-14.21,7.94l-6.58-1.23s-4.37,5.18-.19,12.66c0,0,7,10,9.51,14.91s11.19,17,34.68,9.92l1.42-.45Z" transform="translate(-66.28 -3.27)"/><path class="cls-36" d="M255.59,402s-11.6-2.06-16-4.45-10.21-9.31-10.21-9.31S235.66,406.4,255.59,402Z" transform="translate(-66.28 -3.27)"/><path class="cls-37" d="M236.52,362.35s-6.65,5.48-6.51,8.64l-2-.48S228,363.89,236.52,362.35Z" transform="translate(-66.28 -3.27)"/><path class="cls-25" d="M261.36,358.34s3.33-2.74,6.2-2.88,9.85,1.57,12.74,1.72,9.58,1.87,11.66,3.5a29.45,29.45,0,0,1,4.23,4.41L293.7,368a8.5,8.5,0,0,1,.76,6.33c-1,4.09-4.43,6.77-7.65,6s-5.41-3.05-8.52-4a69.56,69.56,0,0,0-11.91-2.69C257.7,372.6,261.36,358.34,261.36,358.34Z" transform="translate(-66.28 -3.27)"/><path class="cls-25" d="M266.38,373.64c-4.84-.58-5.84-5.28-5.78-9.32a13.4,13.4,0,0,1,3.56-1.51c8.8-2.41,20.59,3.66,20.59,3.66-3.83,5.79-2.22,10.51-1.17,12.52a28.47,28.47,0,0,0-5.29-2.66A69.56,69.56,0,0,0,266.38,373.64Z" transform="translate(-66.28 -3.27)"/><path class="cls-25" d="M284,371.78c-.79,3.23.62,6.37,3.17,7s5.25-1.49,6-4.72-.61-6.37-3.16-7S284.83,368.54,284,371.78Z" transform="translate(-66.28 -3.27)"/><path d="M271.59,428.92s-18.73,76.81-20.86,80.74-5.16,4.45-5.16,4.45S239.4,538.56,232.32,560s-24.62,57.13-40.86,79.35l-3.08-.24s19.81-36.58,27.66-57.65,20.46-72.66,20.46-72.66-.94-3.8,1.39-11.58,19.68-73,19.68-73l10.84,2.18Z" transform="translate(-66.28 -3.27)"/><path class="cls-38" d="M244.21,501.13s2,2.6,1.15,8.39-13.89,40.14-13.89,40.14,4.67-32,6.58-40.57S244.21,501.13,244.21,501.13Z" transform="translate(-66.28 -3.27)"/><path class="cls-39" d="M247,495.25s4.54-9.79,9.32-22.67,9.33-39.17,9.33-39.17l-5.5-2.81s-9,38-10.58,45.36S247,495.25,247,495.25Z" transform="translate(-66.28 -3.27)"/><path class="cls-25" d="M418.22,624.16l.44,9.76,137.17-7.42-3.89-9.6Zm1.25,2.25,124-5.67,4.17,3.26-128,5.85Z" transform="translate(-66.28 -3.27)"/><path class="cls-25" d="M404.06,628.12c0,1.48,0,3,.1,4.43a37,37,0,0,0,3.49,73.74c-.08,1.46-.16,2.93-.23,4.4a41.38,41.38,0,0,1-3.36-82.57Z" transform="translate(-66.28 -3.27)"/><path d="M516.91,580.53,477,585.79l-22.78,3a58.48,58.48,0,0,1-10.17.56,91.48,91.48,0,0,1-37.25-9.14c-13.51-6.7-25.44-17.4-36.36-27.63-7-6.57-13.57-13.58-20.17-20.56l-69.47-73.51-11.92-12.62c-3.24-3.43-7.15-7-7.77-11.88-.47-3.68,5.28-3.92,5.74-.27.38,2.94,4.27,6.18,6.34,8.37l11.48,12.15,36.66,38.79,32.81,34.72c6.6,7,13.17,14,20.17,20.57,11.06,10.4,23.1,21,36.88,27.61a84,84,0,0,0,35.2,7.72,68.46,68.46,0,0,0,9.48-.87l24.23-3.2,36.57-4.81c3.68-.49,3.91,5.26.27,5.74Z" transform="translate(-66.28 -3.27)"/><path class="cls-40" d="M266.3,439.14s-3.72-4-2.72-8a3,3,0,0,1,3.24,2.61c.38,2.94,4.27,6.18,6.34,8.37l11.48,12.15,36.66,38.79L347.69,521l-1.57,2.74Z" transform="translate(-66.28 -3.27)"/><path class="cls-41" d="M448.75,587.29s-23.11-2-27-3.75l-.84-3.78a88.48,88.48,0,0,0,25.47,3.91,68.46,68.46,0,0,0,9.48-.87l24.23-3.2,27.38-3.6,1.91,3.15Z" transform="translate(-66.28 -3.27)"/><path d="M572.49,652.53l-74.1,9.4L414,672.64c-2.53.32-4.32-1-5.89-2.86q-2.71-3.21-5.44-6.41l-23.28-27.46L308.8,552.72l-53.7-63.33-4.07-4.8c-1.62-1.91-.54-5.12,1.36-6.36,2.31-1.49,4.75-.54,6.36,1.36l36.9,43.52,71.63,84.46L415,663.87c.51.61,1,1.21,1.54,1.81l-4.07-2.09,74.09-9.4L571,643.48l1.05-.13c5.89-.75,6.26,8.44.42,9.18Z" transform="translate(-66.28 -3.27)"/><path class="cls-42" d="M451.69,664.06l-2.24-5.16,37.13-4.71,67.66-8.58-1.9,5.22Z" transform="translate(-66.28 -3.27)"/><path class="cls-43" d="M252.13,478.43l.26-.2c2.31-1.49,4.75-.54,6.36,1.36l36.9,43.52,71.63,84.46,2.4,2.83-5.51,1.85Z" transform="translate(-66.28 -3.27)"/><path d="M569.31,644.21l-47.69-57.48-54.34-65.5c-.76-.91-1.5-1.84-2.22-2.78-3.54-4.61-7.92-10.07-9.15-15.87-.76-3.6,4.7-5.4,5.47-1.78,1.3,6.14,6.36,12.05,10.3,16.79l5.8,7,28,33.75,63.32,76.32,5.33,6.43c2.37,2.85-2.49,5.94-4.82,3.12Z" transform="translate(-66.28 -3.27)"/><path class="cls-44" d="M463.36,512.59s-6.19-8-5.21-13.63a2.38,2.38,0,0,1,3.23,1.84c1.3,6.14,6.36,12.05,10.3,16.79l5.8,7,28,33.75,59.7,71.95-4,.18Z" transform="translate(-66.28 -3.27)"/><path class="cls-25" d="M297.15,532.2l24.15,28.85a25.3,25.3,0,0,0-2.69,3.23l-9.81-11.56-14.42-17A12.92,12.92,0,0,1,297.15,532.2Z" transform="translate(-66.28 -3.27)"/><path class="cls-25" d="M297.15,532.2A9.3,9.3,0,0,1,301.5,530l23.61,27.84a27.16,27.16,0,0,0-3.81,3.2Z" transform="translate(-66.28 -3.27)"/><path class="cls-10" d="M184.74,641.36a4.41,4.41,0,1,0,4.2-4.6A4.42,4.42,0,0,0,184.74,641.36Z" transform="translate(-66.28 -3.27)"/><path class="cls-45" d="M186.5,639.94a2.59,2.59,0,1,0,2.47-2.7A2.58,2.58,0,0,0,186.5,639.94Z" transform="translate(-66.28 -3.27)"/><path class="cls-17" d="M562.07,658.75l.2-.13a4,4,0,0,0,.15,3.29,4,4,0,0,0,5.41,1.75,1.48,1.48,0,0,0,.21-.13,4,4,0,1,0,7.59.34c.53.12,1.06.21,1.6.29a4,4,0,1,0,7.71,2.21c0,.08,0,.16.09.23a4,4,0,0,0,7.17-3.66,4,4,0,0,0-1.44-1.56c.43-.26.85-.54,1.25-.83,0,0,0,.07,0,.1a4,4,0,0,0,7.17-3.66,1.74,1.74,0,0,0-.13-.2,4,4,0,1,0,.82-7.69c.12-.45.23-.91.31-1.36a4,4,0,1,0,2.47-7.62l.22-.08a4,4,0,0,0-3.66-7.17,4.07,4.07,0,0,0-1.28,1c-.21-.37-.41-.76-.64-1.12a2.37,2.37,0,0,0,.34-.13,4,4,0,1,0-3.66-7.16,1.48,1.48,0,0,0-.21.13,4,4,0,0,0-.15-3.3,4,4,0,0,0-7.59,2c-.39-.12-.78-.23-1.18-.32a4,4,0,0,0-5.44-5.32,4,4,0,0,0-2.05,2.58c0-.07,0-.15-.09-.22a4,4,0,1,0-7.17,3.66,4.21,4.21,0,0,0,.71.95l0,0c-.34.17-.66.38-1,.57a3.48,3.48,0,0,0-.27-.67,4,4,0,0,0-7.16,3.66c0,.08.09.13.13.21a4,4,0,0,0-3.29.14,4,4,0,0,0,1.58,7.59c-.13.36-.24.73-.35,1.11a4,4,0,0,0-5.63,5.28,4,4,0,0,0,2.58,2.05l-.23.09a4,4,0,0,0-1.75,5.41,3.93,3.93,0,0,0,1.59,1.66,4,4,0,0,0,5.05,6Zm7.66,2.8v0h0ZM564,656.63s0-.07,0-.11l0,.06Z" transform="translate(-66.28 -3.27)"/><path d="M564.74,656.61l.17-.11a3.41,3.41,0,0,0,4.73,4.29c.07,0,.12-.08.18-.11a3.39,3.39,0,0,0,.12,2.8,3.42,3.42,0,0,0,6.33-2.51c.45.1.91.17,1.37.24a3.36,3.36,0,0,0,.21,2.59,3.41,3.41,0,0,0,6.35-.7c0,.06,0,.12.07.19a3.43,3.43,0,1,0,4.87-4.44c.37-.23.72-.46,1.07-.71l0,.09a3.43,3.43,0,0,0,6.1-3.12c0-.06-.08-.11-.11-.17a3.41,3.41,0,1,0,.7-6.54c.1-.38.19-.77.27-1.16a3.37,3.37,0,0,0,2.79-.12,3.42,3.42,0,0,0,1.49-4.61,3.36,3.36,0,0,0-2.19-1.74,1.54,1.54,0,0,0,.19-.08,3.42,3.42,0,0,0-3.11-6.09,3.26,3.26,0,0,0-1.09.88c-.18-.32-.35-.65-.55-1a2.52,2.52,0,0,0,.29-.12,3.42,3.42,0,0,0-3.11-6.09l-.18.11a3.39,3.39,0,0,0-.12-2.8,3.42,3.42,0,0,0-6.46,1.69c-.33-.1-.67-.19-1-.27a3.41,3.41,0,1,0-6.38-2.32c0-.07,0-.14-.07-.2a3.43,3.43,0,1,0-6.1,3.12,3.48,3.48,0,0,0,.6.81h0c-.29.15-.57.33-.85.49a4.45,4.45,0,0,0-.22-.57,3.42,3.42,0,0,0-6.1,3.11c0,.07.08.12.12.18a3.35,3.35,0,0,0-2.8.13,3.41,3.41,0,0,0,1.34,6.45c-.11.31-.2.62-.29.94a3.42,3.42,0,0,0-4.8,4.49,3.38,3.38,0,0,0,2.2,1.74l-.19.08a3.42,3.42,0,0,0-1.5,4.6,3.45,3.45,0,0,0,1.36,1.42,3.41,3.41,0,0,0,4.29,5.08Zm6.52,2.38v0h0Zm-4.9-4.18a.36.36,0,0,1,0-.09l0,0Z" transform="translate(-66.28 -3.27)"/><path class="cls-17" d="M568,654l.14-.08a2.65,2.65,0,0,0,.1,2.2,2.69,2.69,0,0,0,3.63,1.17,1.48,1.48,0,0,0,.13-.08,2.69,2.69,0,1,0,5.09.22c.35.09.71.14,1.07.2a2.65,2.65,0,0,0,.17,2,2.69,2.69,0,0,0,5-.56.94.94,0,0,0,.06.15,2.69,2.69,0,0,0,4.8-2.45,2.63,2.63,0,0,0-1-1c.29-.18.57-.37.84-.56l0,.06a2.69,2.69,0,1,0,4.8-2.45l-.09-.13a2.69,2.69,0,0,0,3.38-3.73,2.68,2.68,0,0,0-2.83-1.42c.08-.3.15-.61.21-.91a2.69,2.69,0,0,0,3.38-3.73,2.65,2.65,0,0,0-1.73-1.37l.15-.06a2.69,2.69,0,1,0-2.45-4.8,2.65,2.65,0,0,0-.86.69c-.14-.25-.27-.51-.43-.75a1.57,1.57,0,0,0,.23-.09,2.69,2.69,0,0,0-2.45-4.8l-.14.09A2.69,2.69,0,1,0,584,631q-.39-.12-.78-.21a2.69,2.69,0,0,0-3.65-3.56,2.61,2.61,0,0,0-1.37,1.73,1,1,0,0,1-.06-.16,2.69,2.69,0,0,0-4.8,2.45,2.58,2.58,0,0,0,.47.65h0c-.23.11-.44.25-.67.38a2.75,2.75,0,0,0-.17-.45,2.69,2.69,0,0,0-4.8,2.45,1.1,1.1,0,0,0,.09.14,2.69,2.69,0,1,0-1.15,5.18c-.08.24-.16.49-.23.74a2.69,2.69,0,1,0-2,4.91l-.15.06a2.7,2.7,0,0,0-1.17,3.63,2.67,2.67,0,0,1,.82,3.94A2.68,2.68,0,0,0,568,654Zm5.14,1.88v0h0Zm-3.86-3.3,0-.07,0,0Z" transform="translate(-66.28 -3.27)"/><path class="cls-17" d="M560.06,651.07l.19,0a3.17,3.17,0,0,0-1,2.45,3.22,3.22,0,0,0,3.37,3.08,1.38,1.38,0,0,0,.2,0,3.16,3.16,0,0,0-1,2.46,3.23,3.23,0,0,0,6.42.31,11.3,11.3,0,0,0,1.07.74,3.22,3.22,0,1,0,4.9,4.18c0,.07,0,.13,0,.2a3.23,3.23,0,0,0,6.45-.3,3.16,3.16,0,0,0-.54-1.61c.41,0,.8-.12,1.2-.2,0,0,0,.06,0,.09a3.23,3.23,0,0,0,6.45-.29,1.38,1.38,0,0,0,0-.2,3.22,3.22,0,1,0,3.16-5.33c.23-.29.46-.59.68-.9a3.21,3.21,0,0,0,5.53-2.39,3.17,3.17,0,0,0-1.21-2.35h.2a3.23,3.23,0,1,0-1.57-6.12c0-.34,0-.69-.1-1l.29,0a3.23,3.23,0,1,0-.29-6.45,1.38,1.38,0,0,0-.2,0,3.22,3.22,0,1,0-5.22-3.52c-.24-.22-.5-.43-.75-.63a3.26,3.26,0,0,0,1.16-2.62,3.23,3.23,0,0,0-3.38-3.07,3.19,3.19,0,0,0-2.35,1.2c0-.06,0-.12,0-.19a3.23,3.23,0,1,0-6.45.29,3.28,3.28,0,0,0,.2.94h0c-.31,0-.61.06-.91.09a3.69,3.69,0,0,0,0-.58,3.23,3.23,0,1,0-6.45.29,1.38,1.38,0,0,0,0,.2,3.22,3.22,0,1,0-3.82,5.08c-.22.22-.42.45-.62.69a3.22,3.22,0,0,0-5.87,2,3.19,3.19,0,0,0,1.2,2.35h-.19a3.23,3.23,0,0,0-3.08,3.37,3.15,3.15,0,0,0,.61,1.74,3.23,3.23,0,0,0,1.7,6.05Zm4.67,4.58h0Zm-2.58-5.5.07-.06a.07.07,0,0,1,0,0Z" transform="translate(-66.28 -3.27)"/><path d="M562.72,650.39l.17,0a2.7,2.7,0,0,0-.84,2.09,2.74,2.74,0,0,0,2.87,2.61l.16,0a2.74,2.74,0,1,0,4.62,2.36c.3.22.6.42.92.62a2.74,2.74,0,0,0,2.16,4.58,2.68,2.68,0,0,0,2-1c0,.06,0,.11,0,.16a2.75,2.75,0,1,0,5.49-.25,2.69,2.69,0,0,0-.45-1.37c.34,0,.67-.1,1-.16,0,0,0,0,0,.07a2.74,2.74,0,1,0,5.48-.25c0-.06,0-.11,0-.16a2.74,2.74,0,1,0,2.68-4.54c.2-.25.4-.5.58-.76a2.74,2.74,0,1,0,3.68-4h.17a2.74,2.74,0,0,0-.26-5.48,2.78,2.78,0,0,0-1.08.28c0-.3,0-.59-.09-.88a1.07,1.07,0,0,0,.25,0,2.74,2.74,0,1,0-.25-5.48l-.16,0a2.74,2.74,0,1,0-4.45-3c-.2-.18-.42-.36-.64-.53a2.74,2.74,0,1,0-3.88-3.82s0-.11,0-.17a2.75,2.75,0,0,0-5.49.26,2.93,2.93,0,0,0,.17.79h0c-.26,0-.52.05-.78.08a4.07,4.07,0,0,0,0-.5,2.75,2.75,0,0,0-5.49.26c0,.05,0,.1,0,.16a2.72,2.72,0,0,0-2.08-.84,2.74,2.74,0,0,0-1.16,5.16c-.18.19-.36.39-.53.59a2.74,2.74,0,0,0-5,1.69,2.68,2.68,0,0,0,1,2h-.16a2.75,2.75,0,0,0-2.62,2.87,2.7,2.7,0,0,0,.52,1.48,2.74,2.74,0,0,0,1.44,5.14Zm4,3.9h0Zm-2.2-4.68.06-.05a.06.06,0,0,1,0,0Z" transform="translate(-66.28 -3.27)"/><path class="cls-17" d="M565.94,649.58l.13,0a2.13,2.13,0,0,0-.66,1.64,2.17,2.17,0,0,0,2.26,2.06h.13a2.11,2.11,0,0,0-.66,1.64,2.16,2.16,0,0,0,4.3.21,8.31,8.31,0,0,0,.72.49,2.17,2.17,0,0,0,1.7,3.61,2.12,2.12,0,0,0,1.58-.81c0,.05,0,.09,0,.13a2.16,2.16,0,1,0,4.32-.19,2.13,2.13,0,0,0-.35-1.09c.27,0,.53-.07.8-.12a.43.43,0,0,1,0,0,2.16,2.16,0,1,0,4.32-.19.51.51,0,0,0,0-.13,2.16,2.16,0,1,0,2.12-3.58c.15-.19.31-.39.45-.59a2.16,2.16,0,0,0,3.71-1.6,2.15,2.15,0,0,0-.81-1.58h.13a2.17,2.17,0,0,0-.2-4.33,2.24,2.24,0,0,0-.85.23c0-.23,0-.47-.07-.69h.2a2.16,2.16,0,1,0-.2-4.32l-.13,0a2.16,2.16,0,1,0-3.5-2.36c-.16-.15-.33-.29-.5-.42a2.12,2.12,0,0,0,.77-1.75,2.14,2.14,0,0,0-2.25-2.06,2.12,2.12,0,0,0-1.58.81s0-.09,0-.14a2.17,2.17,0,0,0-4.33.2,2.62,2.62,0,0,0,.14.63h0c-.21,0-.41,0-.61.06,0-.13,0-.26,0-.39a2.16,2.16,0,0,0-4.32.2.69.69,0,0,0,0,.13,2.16,2.16,0,1,0-2.56,3.4l-.42.46a2.13,2.13,0,0,0-1.87-.92,2.16,2.16,0,0,0-2.06,2.25,2.12,2.12,0,0,0,.81,1.58h-.13a47.4,47.4,0,0,1-2.77,5.42A2.16,2.16,0,0,0,565.94,649.58Zm3.13,3.07h0ZM567.35,649l0,0v0Z" transform="translate(-66.28 -3.27)"/><path class="cls-17" d="M559.81,651.22l.14,0a2.3,2.3,0,0,0-.71,1.78,2.34,2.34,0,0,0,2.45,2.24l.14,0a2.31,2.31,0,0,0-.72,1.78,2.35,2.35,0,0,0,4.67.23q.38.28.78.54a2.34,2.34,0,1,0,3.56,3s0,.09,0,.14a2.35,2.35,0,1,0,4.3-1.39c.29,0,.58-.08.87-.14,0,0,0,0,0,.06a2.35,2.35,0,1,0,4.69-.21.68.68,0,0,0,0-.14,2.34,2.34,0,1,0,2.29-3.88c.18-.21.34-.43.5-.65a2.32,2.32,0,0,0,1.78.72,2.35,2.35,0,0,0,2.24-2.46,2.33,2.33,0,0,0-.88-1.71H586a2.35,2.35,0,0,0-.22-4.69,2.46,2.46,0,0,0-.93.24c0-.25,0-.5-.07-.75l.21,0a2.35,2.35,0,1,0-.21-4.69l-.14,0a2.34,2.34,0,1,0-3.8-2.56c-.18-.16-.36-.31-.55-.45A2.34,2.34,0,1,0,577,635a.38.38,0,0,0,0-.15,2.35,2.35,0,0,0-4.69.22,2.58,2.58,0,0,0,.15.68h0l-.67.06a3,3,0,0,0,0-.42,2.35,2.35,0,1,0-4.69.21.77.77,0,0,0,0,.15,2.34,2.34,0,1,0-2.77,3.69c-.16.16-.31.33-.46.5a2.34,2.34,0,1,0-3.39,3.16h-.14a2.34,2.34,0,0,0-1.79,3.72,2.34,2.34,0,0,0,1.23,4.39Zm3.4,3.33h0Zm-1.88-4,0,0a0,0,0,0,1,0,0Z" transform="translate(-66.28 -3.27)"/><path class="cls-46" d="M561.75,650.73l.12,0a2,2,0,0,0-.61,1.52,2,2,0,0,0,2.08,1.9l.12,0a2.05,2.05,0,0,0-.61,1.52,2,2,0,0,0,4,.19,7.25,7.25,0,0,0,.67.46,2,2,0,0,0-.52,1.43,2,2,0,0,0,2.09,1.9,2,2,0,0,0,1.45-.74V659a2,2,0,0,0,4-.19,2,2,0,0,0-.34-1c.25,0,.5-.07.74-.12v0a2,2,0,0,0,4-.18.5.5,0,0,1,0-.12,2,2,0,0,0,1.52.61,2,2,0,0,0,.43-3.91c.15-.18.29-.36.42-.55a2,2,0,0,0,3.42-1.48,2,2,0,0,0-.75-1.45H584a2,2,0,1,0-.18-4,1.92,1.92,0,0,0-.79.2c0-.21,0-.43-.06-.64h.18a2,2,0,1,0-.18-4h-.12a2,2,0,0,0,.61-1.52,2,2,0,0,0-3.84-.65c-.15-.14-.31-.27-.46-.39a2,2,0,1,0-2.83-2.77s0-.08,0-.12a2,2,0,1,0-4,.18,2,2,0,0,0,.13.58h0a5.48,5.48,0,0,0-.57,0,1.45,1.45,0,0,0,0-.36,2,2,0,0,0-4,.18.59.59,0,0,1,0,.13,2,2,0,0,0-1.52-.61,2,2,0,0,0-.84,3.75c-.13.13-.26.28-.38.42a2,2,0,0,0-3.63,1.23,2,2,0,0,0,.74,1.46h-.12a41,41,0,0,1-2.56,5A2,2,0,0,0,561.75,650.73Zm2.89,2.84h0Zm-1.6-3.41.05,0v0Z" transform="translate(-66.28 -3.27)"/><path class="cls-17" d="M564.09,650.14l.09,0a1.56,1.56,0,0,0,1.17,2.69h.09a1.56,1.56,0,0,0,1.16,2.69,1.55,1.55,0,0,0,1.48-1.34c.17.13.35.24.53.36a1.6,1.6,0,0,0-.41,1.12,1.58,1.58,0,0,0,1.65,1.5,1.55,1.55,0,0,0,1.14-.59v.1a1.57,1.57,0,1,0,3.14-.15,1.61,1.61,0,0,0-.26-.78l.58-.09v0a1.57,1.57,0,1,0,3.14-.15s0-.06,0-.09a1.57,1.57,0,1,0,1.54-2.6l.33-.43a1.57,1.57,0,1,0,2.11-2.31h.09a1.57,1.57,0,1,0-.14-3.14,1.63,1.63,0,0,0-.63.16c0-.16,0-.33,0-.5H581a1.57,1.57,0,1,0-.14-3.14h-.1a1.57,1.57,0,1,0-2.54-1.71c-.12-.1-.24-.21-.37-.3a1.61,1.61,0,0,0,.57-1.28,1.57,1.57,0,0,0-1.64-1.49,1.54,1.54,0,0,0-1.15.58.27.27,0,0,0,0-.09,1.57,1.57,0,0,0-3.14.14,1.64,1.64,0,0,0,.1.45h0l-.45.05a2.64,2.64,0,0,0,0-.28,1.57,1.57,0,1,0-3.14.14s0,.06,0,.1a1.5,1.5,0,0,0-1.19-.48,1.57,1.57,0,0,0-.67,3l-.3.34a1.57,1.57,0,0,0-2.86,1,1.55,1.55,0,0,0,.59,1.15h-.1a1.59,1.59,0,0,0-1.5,1.64,1.64,1.64,0,0,0,.3.85,1.57,1.57,0,0,0,.83,2.95Zm2.27,2.23h0Zm-1.25-2.68,0,0v0Z" transform="translate(-66.28 -3.27)"/><path class="cls-10" d="M568.51,648a4.41,4.41,0,1,0,4.2-4.61A4.41,4.41,0,0,0,568.51,648Z" transform="translate(-66.28 -3.27)"/><path class="cls-47" d="M570.27,646.55a2.59,2.59,0,1,0,2.46-2.7A2.58,2.58,0,0,0,570.27,646.55Z" transform="translate(-66.28 -3.27)"/><path d="M372.35,671.05a1.52,1.52,0,0,1,.11-.64,1.35,1.35,0,0,1,0-.29,1.55,1.55,0,0,1,1.4-1.62c0-.54,0-1.07.07-1.59a1.56,1.56,0,0,1,.3-2.84c.08-.58.18-1.16.3-1.73a1.54,1.54,0,0,1-.68-1.21,1.57,1.57,0,0,1,1.38-1.63c.18-.61.37-1.22.59-1.82a1.57,1.57,0,0,1,.67-2.95,1.35,1.35,0,0,1,.49.07c.22-.49.46-1,.7-1.43a1.6,1.6,0,0,1-.32-.88,1.57,1.57,0,0,1,1.5-1.64,1,1,0,0,1,.24,0q.45-.72.93-1.41a1.48,1.48,0,0,1-.3-.85,1.58,1.58,0,0,1,2.11-1.55c.4-.48.81-.94,1.24-1.4a1.5,1.5,0,0,1-.27-.8,1.56,1.56,0,0,1,2.45-1.37c.41-.37.82-.72,1.24-1.07a2.36,2.36,0,0,1,0-.28,1.57,1.57,0,0,1,1.5-1.64,1.55,1.55,0,0,1,.83.2c.46-.32.92-.62,1.39-.92a1.35,1.35,0,0,1-.06-.35,1.57,1.57,0,0,1,1.5-1.64,1.51,1.51,0,0,1,1.21.5q.84-.43,1.71-.81a.3.3,0,0,1,0-.1,1.57,1.57,0,0,1,2.84-1q.8-.27,1.62-.51a1.56,1.56,0,0,1,2.73-.67c.55-.1,1.1-.2,1.66-.28a1.57,1.57,0,0,1,3-.31l.53,0c.45,0,.91,0,1.36,0a1.57,1.57,0,0,1,3,.11c.57.05,1.14.11,1.7.18a1.55,1.55,0,0,1,1.2-.66,1.57,1.57,0,0,1,1.58,1.13c.54.11,1.08.24,1.62.38a1.54,1.54,0,0,1,1.3-.81,1.56,1.56,0,0,1,1.64,1.49,1,1,0,0,1,0,.24c.59.22,1.18.44,1.76.69a1.57,1.57,0,0,1,2.72,1,1.51,1.51,0,0,1,0,.3c.5.27,1,.55,1.47.83a1.55,1.55,0,0,1,.79-.26,1.57,1.57,0,0,1,1.64,1.5,1.27,1.27,0,0,1,0,.34c.43.31.85.63,1.27,1a1.56,1.56,0,0,1,2.64,1.07,1.51,1.51,0,0,1-.28,1c.46.43.91.88,1.34,1.34a1.4,1.4,0,0,1,.5-.11,1.57,1.57,0,0,1,1.64,1.49,1.5,1.5,0,0,1-.2.84c.36.44.7.89,1,1.35a1.75,1.75,0,0,1,.24,0,1.56,1.56,0,0,1,1.36,2.45c.27.44.53.89.77,1.34a1.59,1.59,0,0,1,.58-.14,1.57,1.57,0,0,1,.79,3c.26.59.5,1.2.73,1.81a1.56,1.56,0,0,1,.86,2.74c.15.56.3,1.13.42,1.7a1.58,1.58,0,0,1,1.23,1.46,1.55,1.55,0,0,1-.73,1.39c.09.64.15,1.29.2,1.93a1.57,1.57,0,0,1,.11,3.13c0,.53,0,1.05,0,1.58a1.56,1.56,0,0,1-.29,2.84c-.08.59-.18,1.16-.29,1.73a1.6,1.6,0,0,1,.68,1.21,1.57,1.57,0,0,1-1.35,1.62c-.17.62-.37,1.24-.57,1.84a1.57,1.57,0,0,1-.62,3,1.84,1.84,0,0,1-.53-.08c-.22.48-.44,1-.68,1.43a1.47,1.47,0,0,1,.33.89,1.57,1.57,0,0,1-1.49,1.64,1,1,0,0,1-.24,0c-.29.48-.6,1-.92,1.43a1.56,1.56,0,0,1,.28.83,1.57,1.57,0,0,1-1.49,1.64,1.39,1.39,0,0,1-.58-.09c-.4.49-.8,1-1.22,1.43a1.54,1.54,0,0,1,.29.84,1.57,1.57,0,0,1-1.5,1.64,1.53,1.53,0,0,1-1-.29c-.4.36-.8.72-1.22,1.07a2.5,2.5,0,0,1,.05.29,1.56,1.56,0,0,1-2.33,1.45q-.68.48-1.38.93a1.27,1.27,0,0,1,.05.34,1.57,1.57,0,0,1-1.5,1.64,1.54,1.54,0,0,1-1.18-.47c-.56.29-1.12.57-1.7.83a.59.59,0,0,1,0,.14,1.56,1.56,0,0,1-2.84,1c-.53.19-1.07.36-1.61.52a1.57,1.57,0,0,1-1.46,1.24,1.54,1.54,0,0,1-1.27-.56c-.55.12-1.11.22-1.67.31a1.56,1.56,0,0,1-3,.33c-.27,0-.53.05-.8.06s-.73,0-1.09,0a1.56,1.56,0,0,1-3-.08c-.57,0-1.14-.1-1.7-.17a1.55,1.55,0,0,1-2.77-.44c-.55-.12-1.1-.24-1.64-.38a1.57,1.57,0,0,1-2.93-.71.62.62,0,0,1,0-.19c-.6-.21-1.18-.43-1.76-.67a1.64,1.64,0,0,1-1.11.54,1.58,1.58,0,0,1-1.64-1.5,1.82,1.82,0,0,1,0-.33c-.49-.26-1-.53-1.46-.81a1.66,1.66,0,0,1-.8.27,1.57,1.57,0,0,1-1.64-1.5,1.22,1.22,0,0,1,0-.33c-.44-.3-.87-.62-1.29-.95a1.61,1.61,0,0,1-1,.41,1.58,1.58,0,0,1-1.64-1.5,1.61,1.61,0,0,1,.25-.92c-.46-.43-.91-.87-1.34-1.32a1.64,1.64,0,0,1-.54.13,1.57,1.57,0,0,1-1.44-2.34c-.35-.44-.7-.89-1-1.35a1.81,1.81,0,0,1-.23,0,1.57,1.57,0,0,1-1.64-1.5,1.51,1.51,0,0,1,.26-.93c-.28-.44-.54-.89-.79-1.35a1.64,1.64,0,0,1-.55.13,1.57,1.57,0,0,1-.84-2.94c-.26-.59-.5-1.18-.73-1.79a1.56,1.56,0,0,1-.9-2.75c-.15-.56-.3-1.13-.43-1.7a1.56,1.56,0,0,1-.52-2.83c-.08-.51-.14-1-.19-1.55A1.56,1.56,0,0,1,372.35,671.05Z" transform="translate(-66.28 -3.27)"/><path class="cls-9" d="M374.9,670.74A33.62,33.62,0,1,0,407,635.61,33.63,33.63,0,0,0,374.9,670.74Z" transform="translate(-66.28 -3.27)"/><path class="cls-10" d="M377.77,670.6a30.75,30.75,0,1,0,29.31-32.12A30.75,30.75,0,0,0,377.77,670.6Z" transform="translate(-66.28 -3.27)"/><path class="cls-26" d="M271.61,425.28s1.21,1.1.77,4.18a19,19,0,0,1-9-.35c-5.14-1.4-6.16-4.8-6.16-4.8s1.58-3.24,4.48-2.7Z" transform="translate(-66.28 -3.27)"/><path class="cls-9" d="M257.19,424.31s1.58-3.24,4.48-2.7l2.9,1.07,2.94,3s-4.48.68-4,1.81c.35.92,4.58,2,6.15,2.35a20.74,20.74,0,0,1-6.27-.71C258.21,427.71,257.19,424.31,257.19,424.31Z" transform="translate(-66.28 -3.27)"/><path class="cls-10" d="M262.83,428.27a2.94,2.94,0,0,1-.06-1.34,5.12,5.12,0,0,1,1-1.29s-3.33-1.48-4.17-3.17c0,0-1.79.66-1.83,2C257.77,424.47,258.27,427,262.83,428.27Z" transform="translate(-66.28 -3.27)"/><path class="cls-48" d="M272,428.52s-.1-2-.69-2.46a8.67,8.67,0,0,1-4.32,0s.79.35,2.25.95S271.33,427.4,272,428.52Z" transform="translate(-66.28 -3.27)"/><path d="M270.72,421.34s1,.67.9,4c0,0-2.39,1.26-6.62,0s-4.75-3.23-4.75-3.23a3.62,3.62,0,0,1,4.64-2.37Z" transform="translate(-66.28 -3.27)"/><path class="cls-49" d="M265.84,424.68s-3.25-1.77-3.38-2.53a15,15,0,0,1-.17-1.53s-1,.05-1.64,1.71A8.74,8.74,0,0,0,265.84,424.68Z" transform="translate(-66.28 -3.27)"/><path class="cls-26" d="M261.29,396.6s4.54,7.08,4.73,11.1-3,13.37-3,13.37,2.81,2.94,7.92,1.36c0,0,4.24-12.08,1.74-20.6S256.22,378,256.22,378l-4.83-.93s-4.76.79-4.9,1.95,0,4,.77,4.37,4.34,2.49,4.34,2.49Z" transform="translate(-66.28 -3.27)"/><path class="cls-50" d="M271.18,415.71s.2-11.37-3-17.7-11.28-17-11.28-17,11.74,11.4,15,20.31C272,401.29,273.71,405,271.18,415.71Z" transform="translate(-66.28 -3.27)"/><path class="cls-10" d="M263,421.07s3.21-9.35,3-13.37-4.73-11.1-4.73-11.1l-9.69-10.68s-3.55-2.14-4.34-2.49-.91-3.21-.77-4.37,4.9-1.95,4.9-1.95l4.83.93s.5.54,1.32,1.48a6,6,0,0,1-2.36.87c-3.24.53-1.79,2.76-1.79,2.76s9.39,8.2,13.42,16.65,1.18,13.37.77,16.84a11.72,11.72,0,0,0,1.13,6.22A7.36,7.36,0,0,1,263,421.07Z" transform="translate(-66.28 -3.27)"/><path class="cls-9" d="M261.72,393.32a47.17,47.17,0,0,0-9.86-10.1s1.22-2.54-.14-3.06a13.41,13.41,0,0,1-3-1.78s1.29-.61,3-1.2l4.48.86s.5.54,1.32,1.48a6,6,0,0,1-2.36.87c-3.24.53-1.79,2.76-1.79,2.76s9.39,8.2,13.42,16.65,1.18,13.37.77,16.84a11.72,11.72,0,0,0,1.13,6.22,7.88,7.88,0,0,1-4.79-1.08,20.32,20.32,0,0,0,3.59-10.7C268.11,403.19,266,399.45,261.72,393.32Z" transform="translate(-66.28 -3.27)"/><path d="M256.53,372.27a8.48,8.48,0,0,0,.85,5.91,3.4,3.4,0,0,1-3,1.29c-2.11-.1-4.83-.74-4.83,3.48l-.11,1.73-6.57-1.05s-3.5-1.18-3.38-2.72.53-5.2,2.2-6.43,4.58-4.62,6.47-5.28,4.71-1.75,5.49-1.59Z" transform="translate(-66.28 -3.27)"/><path class="cls-49" d="M254.93,374.89a10.33,10.33,0,0,1-3.38,1.33c1.48,2.1,5.4,3.78,3.58-.19ZM247,381.55c1.57,1.45,1.3-1.47,1.76-2.36l0-.71C247.83,379,245.83,380.43,247,381.55Z" transform="translate(-66.28 -3.27)"/><path class="cls-26" d="M261.21,403.32s4.56-9.42-3-15.21-16.72-5-16.9-8.82,12.47-4,11.19-7-5.78-8.94-5.78-8.94l-11,10.09s-5,.23-6.94-.83-8,1.13-6.33,4.13,9.64,9.53,14.29,10.47,11-2,15.79,1.58,7.15,5.42,6.22,10.07C258.71,398.83,256.57,402.38,261.21,403.32Z" transform="translate(-66.28 -3.27)"/><path class="cls-51" d="M261.43,395.54a12.74,12.74,0,0,0-4.91-6.78,63.08,63.08,0,0,0-10.8-5.45,34,34,0,0,1,11.83,4.83S261.72,391.31,261.43,395.54Z" transform="translate(-66.28 -3.27)"/><path class="cls-52" d="M239.71,383.88s-6.31-1.63-8.14-4,3.57-5.63,3.57-5.63a36,36,0,0,1-6.07-.68c-1.46-.51-5.19-.34-4.31,2.21S232.4,383.44,239.71,383.88Z" transform="translate(-66.28 -3.27)"/><path class="cls-10" d="M252.51,372.26c-1.29-3-5.78-8.94-5.78-8.94l-8,7.33a7,7,0,0,0,4.18.67c-2.45,1.31-8.14,4.55-8.35,6.37-.28,2.31,1.73,4.33,4,4.61,0,0-2.92-1-2.86-3.9.05-2.32,6.92-4.45,9.62-5.19-2.78,1.46-8.15,2.89-7.31,5.47,1,2.95,6.15,3.68,7.52,3.83-2.48-.81-4.15-1.6-4.23-3.22C241.15,375.47,253.79,375.27,252.51,372.26Zm-30.1,4.45c1.67,3,9.64,9.53,14.29,10.47s11-2,15.79,1.58,7.15,5.42,6.22,10.07c0,0-2,3.26,2,4.35.4-.74,1.09-2.45-.57-3.27a8.61,8.61,0,0,0-3.72-10c-5.93-3.95-10.39-5.08-12.5-5a20.57,20.57,0,0,1-13.57-3.21c-5.94-4-7.95-6.16-6-8.55a1.1,1.1,0,0,0,.14-.18C222.8,373.76,221.52,375.12,222.41,376.71Z" transform="translate(-66.28 -3.27)"/><path class="cls-9" d="M247.1,375.54c3.06-.93,6.07-1.73,5.41-3.28-1.29-3-5.78-8.94-5.78-8.94l-7.39,6.76c2.9,1.5,5.93-1.95,5.93-1.95,1.56,2.67,5.11,4.81,5.11,4.81C250.41,373.57,248.5,374.76,247.1,375.54Zm-20.57,4.38a22.27,22.27,0,0,0,17.52,5.67,39.5,39.5,0,0,1,4.49.27,13,13,0,0,0-4.66-.93,20.57,20.57,0,0,1-13.57-3.21c-5.94-4-7.95-6.16-6-8.55a1.1,1.1,0,0,0,.14-.18,5.78,5.78,0,0,0-1.49,1C222.75,375.29,223.58,377.17,226.53,379.92Zm29.85,10-.68-.44.34.31c5.4,4.79,3.36,10.49,3.36,10.49a3.78,3.78,0,0,1,1.74,1.56,1.74,1.74,0,0,0-1-1.93A8.61,8.61,0,0,0,256.38,389.92Z" transform="translate(-66.28 -3.27)"/><path class="cls-25" d="M378.72,620.22l-6.07-7s-5.81,2.95-6.95,7.41l14.06,18.15s2,.87,2.71.45Z" transform="translate(-66.28 -3.27)"/><path class="cls-5" d="M363.66,714c3.15,1.16,6.66-3.17,8-5.46a35.11,35.11,0,0,0,4.67-14.36,9.91,9.91,0,0,0,1.56-4c.07-.47-.57-.54-.76-.16-2.84,5.8-8.82,8.47-12.28,13.72C363.7,705.55,360.09,712.72,363.66,714Zm.88-4.59c1.39-4.79,4.62-7.51,8-10.89a31.37,31.37,0,0,0,3.1-3.42c-1,3.64-2.92,7.13-4.44,10.44a14.19,14.19,0,0,1-4.16,5.47,4.9,4.9,0,0,1-2.26,1.24C363.69,712.38,364.48,709.64,364.54,709.45Z" transform="translate(-66.28 -3.27)"/><path class="cls-53" d="M366.34,713.3c2.12-1,4.06-3.61,4.87-5a35.75,35.75,0,0,0,3.91-9.84c-.67,1.68-1.46,3.31-2.23,4.91-.4.82-.79,1.63-1.16,2.43a14.53,14.53,0,0,1-4.32,5.66l-.18.15a7.7,7.7,0,0,1-1.4.92,2.88,2.88,0,0,1-1,.28,1,1,0,0,1-.87-.36c-.58-.7-.23-2.28,0-3.16,1.27-4.41,4.1-7.15,7.09-10l1.09-1.07a30.77,30.77,0,0,0,3.06-3.36.53.53,0,0,1,.2-.16.5.5,0,0,1,.3,0c0-.15,0-.29,0-.44a.43.43,0,0,1,.08-.24,9.83,9.83,0,0,0,1.27-2.78,28.64,28.64,0,0,1-6.27,7,31.06,31.06,0,0,0-5.58,5.92c-.94,1.43-3.27,6.06-2.51,8.38a1.66,1.66,0,0,0,1.05,1.09,3.18,3.18,0,0,0,2.49-.24Z" transform="translate(-66.28 -3.27)"/><path class="cls-5" d="M358,705.19c2.46,2.29,7.37-.33,9.5-1.92a35.21,35.21,0,0,0,9.88-11.41,10.14,10.14,0,0,0,3-3.08c.25-.41-.32-.72-.64-.45-4.87,4.25-11.42,4.38-16.64,7.87C361.36,697.38,355.24,702.58,358,705.19Zm2.59-3.89c3.14-3.87,7.18-5.13,11.65-6.91a31.78,31.78,0,0,0,4.19-1.93c-2.32,3-5.46,5.42-8.16,7.88a14.06,14.06,0,0,1-6,3.42,5,5,0,0,1-2.56.27C358.69,703.67,360.49,701.46,360.61,701.3Z" transform="translate(-66.28 -3.27)"/><path class="cls-53" d="M360.77,705.55c2.35-.1,5.14-1.75,6.43-2.71a35.87,35.87,0,0,0,7.43-7.54c-1.27,1.28-2.63,2.48-4,3.65-.68.6-1.36,1.2-2,1.79a14.48,14.48,0,0,1-6.18,3.54l-.23.06a7.11,7.11,0,0,1-1.64.31,2.59,2.59,0,0,1-1-.12,1,1,0,0,1-.67-.67c-.25-.86.68-2.18,1.26-2.89,2.89-3.57,6.55-5,10.44-6.51l1.42-.56a31.2,31.2,0,0,0,4.12-1.91.78.78,0,0,1,.25-.07.51.51,0,0,1,.29.08l.21-.39a.61.61,0,0,1,.17-.19,10,10,0,0,0,2.25-2.06,28.88,28.88,0,0,1-8.49,4,31.1,31.1,0,0,0-7.45,3.29c-1.41.94-5.36,4.3-5.56,6.74a1.64,1.64,0,0,0,.54,1.41,3.17,3.17,0,0,0,2.38.75Z" transform="translate(-66.28 -3.27)"/><polygon class="cls-1" points="348.77 652.79 355.29 673.25 328.65 689.45 317.79 677.66 319.81 658.73 348.77 652.79"/><path class="cls-2" d="M426.45,656.89s13.61,4.87,19.41,23.05c0,0,9.81,4.19,8.68,7.17s-9.5,13-19.72,18.85-14.7,9-16.35,9.48-5.54-2.27-8.4-.48.27,6.27-2.15,8.47-13.6,15.23-27.14,21.67-21.16,4.67-21.16,4.67-2.64-2.82-1.94-6.2c0,0-4-4.86-1.7-10.4s10.35-12.58,10.35-12.58,8.66-23,11.27-30.63c0,0,.32-12.16,5.27-14.05s8.13,4.26,12.35,4.92,15.29-4.83,17.57-10.38c0,0-1.59-7.88-.41-9.61S426.45,656.89,426.45,656.89Z" transform="translate(-66.28 -3.27)"/><path class="cls-54" d="M365.16,739.18c-4.15-6.67.38-9.94,5.12-14.12,9.69-8.55,10.14-21.45,14.25-32.88,1.85-5.13,3.47-9.57,7.85-12.55a7.4,7.4,0,0,0,2.84,1.2c3.22.51,10.46-2.59,14.7-6.55a30.13,30.13,0,0,1,10.49,1.06c7.11,2.14,10.21,10.94,12.18,17.31.8,2.58,1.24,6.58,4.24,7.61,1.9.65,4.52.14,6.86-.68a58.89,58.89,0,0,1-8.87,6.38c-10.23,5.87-14.7,9-16.35,9.48s-5.54-2.27-8.4-.48.27,6.27-2.15,8.47-13.6,15.23-27.14,21.67q-2.44,1.15-4.62,2A16.34,16.34,0,0,1,365.16,739.18Z" transform="translate(-66.28 -3.27)"/><path d="M382.5,687c-.36,1.48-4.91,17.58-8.15,25.05s-6.05,10.52-9.73,12.56a40.33,40.33,0,0,0-7.38,6.14c3.12-5,9.09-10.19,9.09-10.19s8.66-23,11.27-30.63a34.28,34.28,0,0,1,1.8-9.82C381.46,681.74,382.79,685.83,382.5,687Z" transform="translate(-66.28 -3.27)"/><path class="cls-53" d="M454.54,687.11c-1.13,3-9.5,13-19.72,18.85s-14.7,9-16.35,9.48-5.54-2.27-8.4-.48.27,6.27-2.15,8.47-13.6,15.23-27.14,21.67-21.16,4.67-21.16,4.67-2.64-2.82-1.94-6.2a9.94,9.94,0,0,1-.84-1.26c.76-.54,1.36-1,1.57-1.07.82-.46,3.57,0,1.56,2s.44,5.43.44,5.43c5.07,1,14.35-2.29,21.55-5.31S401,729,401,729s7.17-8.68,5-10.68-11.36,3.62-11.36,3.62l13.44-14,8.75-5.82s-4.08,7.5-4,9,3.31,4,6,2.26,10.42-6.31,17.59-10c6.48-3.31,16.38-14.79,18.23-17A1.51,1.51,0,0,1,454.54,687.11Z" transform="translate(-66.28 -3.27)"/><path class="cls-5" d="M418.47,715.44c-1.66.49-5.54-2.27-8.4-.48s.27,6.27-2.15,8.47-13.6,15.23-27.14,21.67-21.16,4.67-21.16,4.67-2.64-2.82-1.94-6.2a9.1,9.1,0,0,1-.6-.87c1.08-.25,2-.24,1.42.52-1,1.46.88,6.09.88,6.09s-.11.94,9.4-.71,17.45-6.87,22.19-10.05,15.55-14.8,15.55-14.8,1.57-3.52,1-5.85-6-1-6-1l4.6-6.48s8.51-6.64,6.61-3.26a6,6,0,0,0-.05,6.12,21,21,0,0,0,4.62,1.53c1.41.1,4.3-2.22,5.68-2.91s10.11-6.24,12.73-7.29a68,68,0,0,0,8.28-5.28,59.07,59.07,0,0,1-9.16,6.63C424.59,711.83,420.12,715,418.47,715.44Z" transform="translate(-66.28 -3.27)"/><path d="M402.6,716.54c-3.88,2.25-10.11,8.59-10.11,8.59l1.24-5.29,6.16-8s7.5-5.77,8.11-6.21a27.57,27.57,0,0,0,2.57-3.46l6.47-.48s-8.33,8.67-5.48,12.73a4,4,0,0,0-1.49.54,2.68,2.68,0,0,0-1.24,2.07A5.27,5.27,0,0,0,402.6,716.54Z" transform="translate(-66.28 -3.27)"/><path d="M419.8,700.1c11.37-5.29,23.7-17.74,26.05-20.17a40.25,40.25,0,0,0-8.71-15.3C417.84,668,419.8,700.1,419.8,700.1Zm-62.12,43.47a1.52,1.52,0,0,0,0,.21c14,3.6,34.53-15.31,38.52-23.2s21.18-19.12,21.18-19.12c-7.52-6.9-22.85,16.68-26.89,17.79s-10.11-1.46-11.27.79-4.61,9.94-12.31,13.4a31.8,31.8,0,0,0-10.75,7.41A11.78,11.78,0,0,0,357.68,743.57Zm75.19-82.87a26.2,26.2,0,0,0-6.42-3.81s-12.89,2.22-14.07,4,.41,9.61.41,9.61c-2.28,5.55-13.35,11-17.57,10.38-4-.62-7.05-6.13-11.54-5.16,4.13.92,1.15,6.47,4.72,9.74,4.25,3.91,23.88.25,26.35-.8s5.45-12.17,8.69-17.33C425.76,663.57,430.42,661.55,432.87,660.7Z" transform="translate(-66.28 -3.27)"/><path class="cls-55" d="M527.24,398.87s-7.12,33.12-63.9,74.55-62.47,49.46-60.19,61.44,14.41,32.13,14.3,67.52c0,0,0,17.79,3,20s3.15,6.18,1.09,11.45,7.1,4.28,7.37,10-5.14,13.47-5.14,13.47-9.71,1.6-11.27,5.12-23.12,10.26-24.82,10.91-5.19-.33-5.9-3.18-3.81-7.88-2.87-12.52,3.8-17.44.77-20.75-.91-20.1-3.11-30.35S369.2,583.83,365,567.34s-6.27-23.88-10.27-35.78-4.2-16.49.07-23.59,41.51-73.82,69.89-107.33c0,0,8.61-13.06,14.09-19.06s27.29-19.66,29.56-20.34,19.89-5.51,21.61-5.59,14,3.39,14,3.39Z" transform="translate(-66.28 -3.27)"/><path class="cls-56" d="M424.68,400.64s8.61-13.06,14.09-19.06C443.17,376.76,458.11,367,465,363a16.06,16.06,0,0,1,2.32,1.7c17,14.84,1.78,60-33.94,100.84-28.26,32.32-60.9,52.25-81.71,51.82a18.57,18.57,0,0,1,3.13-9.39C359.07,500.87,396.3,434.15,424.68,400.64Z" transform="translate(-66.28 -3.27)"/><path class="cls-57" d="M412.49,662.4c-1.57,3.52-23.12,10.26-24.82,10.91s-5.19-.33-5.9-3.18-3.81-7.88-2.87-12.52,3.8-17.44.77-20.75-.91-20.1-3.11-30.35S369.2,583.83,365,567.34s-6.27-23.88-10.27-35.78c-2.35-7-3.39-11.47-3-15.41a19.65,19.65,0,0,0,8.91,6.89c6.25,2.4,24.95,8.84,27,12.19s9.44,21.82,13.33,39.67,2.4,27.5,2.4,27.5l-.2,3.85s1.43,6.07-.31,10,12,10.2,12,10.2l.42,17.62a146.81,146.81,0,0,0,.31,15.7A6.29,6.29,0,0,0,412.49,662.4Z" transform="translate(-66.28 -3.27)"/><path class="cls-58" d="M508.63,387c-14.09-18.92-47.13-11.66-61.22-5.26-4.24,1.93-7.13,1.65-9,.2l.34-.38c5.48-6,27.29-19.66,29.56-20.34s19.89-5.51,21.61-5.59,14,3.39,14,3.39l23.34,39.83s-3,13.76-20.27,34.64l-2.66-2.57S522.73,405.93,508.63,387Z" transform="translate(-66.28 -3.27)"/><path class="cls-7" d="M399.38,614.86c-7.57,2.26-20.56-5.19-20.56-5.19l1,4.94s4,3.26,8.23,3.84S399.38,614.86,399.38,614.86Zm6.14-8.33-1.78-5.29C400.89,606,390,611.07,390,611.07,398.53,613,405.52,606.53,405.52,606.53Zm-27.35,25.15c.25,2.43.69,4.29,1.5,5.18a4.05,4.05,0,0,1,.79,1.39c.74-.17,2.26-.52,5.36-1.29,5.68-1.41,17.43-4.63,20.07-5.52,0,0-9.29-1.88-13.88-1.67C387.8,630,383.5,635.32,378.17,631.68ZM408.08,654c0,4.68-1.25,9.92-3.29,11.06-1.44.8-5.33,3.14-9.31,5.55,6.92-2.46,16-6,17-8.24,1.56-3.52,11.27-5.12,11.27-5.12s5.4-7.73,5.14-13.47-9.43-4.74-7.37-10,1.88-9.29-1.09-11.45-3-20-3-20c.11-35.39-12-55.54-14.3-67.52s3.4-20,60.19-61.44c29-21.18,45.08-40.19,53.83-53.72-5.17,4.46-41.07,35.11-64.44,48.17s-55.57,38.93-60.62,53c-15.69-6.57-27.17-5-27.17-5,6.11.68,21.56,7.08,26.51,9.18,0,1,.1,2,.23,3-5.5-.39-16.82-5-16.82-5,4.42,3.5,13,6.16,17.18,7.31,2.46,13.91,11.76,34.93,13.08,47.45a273.69,273.69,0,0,1,1.63,30.75,30.79,30.79,0,0,1-5.89,8.27c-9.08,9-8.18,9.87-3,9.63s13.94,2.82,13.94,2.82c.06,1.42-.79,3.45-1.86,5.66-3.73,2.78-10.4,7.26-15.64,8.08-4,.63-9.2-.75-13.32-2.24.33,4.16-.74,10.12-1.54,14.12,4.22-2.2,14.8-7.38,20.26-6.94A10.22,10.22,0,0,1,408.08,654Z" transform="translate(-66.28 -3.27)"/><path class="cls-59" d="M409.34,639.72c-1.5.84-10.84,6.25-10.84,6.25s11.59,1.77,12.08,4a48.24,48.24,0,0,1,.35,7.65,30.3,30.3,0,0,1,7.91-3c3.43-.54,8.77-9.61,6.42-10.65s-13.1-1.32-12.4-2.89,10.28-10.05,8.22-13-7.2-6.57-7.4-10.78,4.24-33.18-6.57-59.92-6.9-33.44-2.95-39.38,31-28,38-32c8.41-4.79,43.75-33.07,48.06-39.4l-4.12,2.11s-17.78,13.85-29.75,20.54S406.45,501,398,516.35a69,69,0,0,0-.38,8.46c.15,3.44-2.82,5.49-2.37,7s9.42,29.87,12.26,41.63,3.44,33.21,2.45,36.71-9.88,10.43-9,12.69,14.3,2.41,15.24,6.2S410.84,638.89,409.34,639.72ZM381.91,652.1l11.8-6.1-10.24-1.64S383.58,651.06,381.91,652.1Zm1.9-17.16a10.44,10.44,0,0,1-3.28-.42L382,637s8.68-3.09,9.64-3.13l6.83-1.66s-4.87-1.5-7.31-.43S385.53,634.87,383.81,634.94Zm8.54-18.61s-4.63-.55-6.39-1.43-5.12-2.83-5.12-2.83l.88,2.45s4.15,2.69,5.68,2.62Zm10.58-12s-3.5,3.23-4.63,3.67a33.3,33.3,0,0,0-3.74,2.09s4.94-1,6.81-2Zm-11-80.43,1.11-1s-9.84-5.3-18.07-5.12Z" transform="translate(-66.28 -3.27)"/><path class="cls-60" d="M430,406.94l13.12-5.9A24.17,24.17,0,0,0,430,406.94Zm-16.44,15.95,21.31-11.82A39.79,39.79,0,0,0,413.53,422.89Zm-12.08,16.18,20.9-13.66C415.5,426.83,405.12,433.42,401.45,439.07Zm-12.54,16.85,17.41-13.8C400,445.42,392.37,450.16,388.91,455.92Zm-4.61,8.63,10.93-8.11A34.25,34.25,0,0,0,384.3,464.55Zm1,5.76,4.47-4A10.45,10.45,0,0,0,385.28,470.31Z" transform="translate(-66.28 -3.27)"/><path class="cls-61" d="M522.93,410.24S519.69,396,513,388s-21.38-20.89-21.38-20.89-21.72,3-30.44,7.44c0,0-1.61-3.67-.46-3.72s10.39-5.66,10.39-5.66,14.39-6.12,18.12-6.29a34.09,34.09,0,0,1,11.32,2.07c1.76.78,13.44,10.89,14.34,11.71s11.89,14.71,13.46,17.51-.4,10.09-.4,10.09S526,407.22,522.93,410.24Z" transform="translate(-66.28 -3.27)"/><path class="cls-62" d="M402.38,217.15a70.75,70.75,0,0,0-4.23-23.38c-3.71-10.17-4.91-14.82-5.88-19.68s13.2-4.82,14.71-5.27,11.8-2.08,13.77-1,19.46-2,19.46-2,3.84,16.7,4.31,18.6,2.47,12.16,1,14.53-9.62,7.72-11.88,8.59Z" transform="translate(-66.28 -3.27)"/><path class="cls-1" d="M427.81,188s18.25.79,27.55,15.42c8.15,12.83,13.91,27.37,13.41,33.15s-6.49,26-6.49,26-20,15.49-21.53,15.56-20-.24-21.18-1.72-7.48-12.7-6.85-15.79,4.44-28.59,5.15-29.77S427.81,188,427.81,188Z" transform="translate(-66.28 -3.27)"/><path class="cls-1" d="M466.4,231s-2.35,17.65-11.81,24.7-18.92,7.77-20.15,6.1-3.38-11.06-3.38-11.06,6.56-13.83,6.43-16.7-18.93,13.81-18.93,13.81l-2.41,16.51s23.91,13.29,25.07,13.53,19.32-5.2,21.25-7,4.45-9.69,5.48-12.33.68-10.39.68-10.39Z" transform="translate(-66.28 -3.27)"/><path class="cls-25" d="M470.75,244.34c28.35,16,65.09,58.3,65.09,58.3l-2.48,2.41-1.9,2.39s-32.55-38.79-60.9-54.75Z" transform="translate(-66.28 -3.27)"/><path class="cls-25" d="M479.86,254.85s-3-4-2.52-6.45c22.76,15.18,48.51,43.07,56.21,51.65l-3.19,2.26S497.31,265.27,479.86,254.85Z" transform="translate(-66.28 -3.27)"/><path class="cls-63" d="M530.14,310a7,7,0,1,0,6.71-7.36A7,7,0,0,0,530.14,310Zm2.06-.09a5,5,0,1,1,5.2,4.74A5,5,0,0,1,532.2,310Z" transform="translate(-66.28 -3.27)"/><path d="M512.1,362.12s-46.77-3.62-87.42,38.52c0,0-.84-5.72.18-8.64s1.48-17.91,1.72-25.4-15.38-21.73-19.69-27.86-9.74-24.3-12.17-27.06-9-8.8-12.74-14.38-9-19.73-9-19.73-4.6-12.44,14.89-26.57,29.65,6.7,29.65,6.7,9.76,12.21,25.08,7.48,22.65-20.59,23.53-26.39c0,0,.62-11.72-.32-15.52,0,0,5.59,13.17,6.53,33.84s2.05,44.78,5.36,50,12.43,28.59,15.63,31.51,9.88,6.45,11.35,13.29Z" transform="translate(-66.28 -3.27)"/><path d="M472,302.39c-5.07-22.78,1.61-40.35-3.91-60.23a43.46,43.46,0,0,1-6.78,8.1,33,33,0,0,0,4.9-11.47s.62-11.72-.32-15.52c0,0,5.59,13.17,6.53,33.84s2.05,44.78,5.36,50,12.43,28.59,15.63,31.51,9.88,6.45,11.35,13.29l2.61,3.62-9.44-2S477,325.17,472,302.39Z" transform="translate(-66.28 -3.27)"/><path d="M424.86,392c1-2.93,1.48-17.91,1.72-25.4s-15.38-21.73-19.69-27.86-9.74-24.3-12.17-27.06-9-8.8-12.74-14.38-9-19.73-9-19.73-4.6-12.44,14.89-26.57,29.65,6.7,29.65,6.7,9.76,12.21,25.08,7.48c7.84-2.42,13.59-7.76,17.45-13.17-.61,26.8-15.79,68.71-.6,80.92,11.85,9.54,20.41,26.16,25.89,32.21-17,4.14-39.67,13.69-60.71,35.5C424.68,400.64,423.84,394.92,424.86,392Z" transform="translate(-66.28 -3.27)"/><path d="M452.81,337.56c-8.7-20.32-3.34-35.23-9.84-45.29s-31-17.57-38.68-15.49-22.24-14.52-14-22.66a37.4,37.4,0,0,0,5.1-7.1c14.6-4.82,22.16,10.68,22.16,10.68s9.76,12.21,25.08,7.48c7.84-2.42,13.59-7.76,17.45-13.17-.61,26.8-15.79,68.71-.6,80.92,11.85,9.54,20.41,26.16,25.89,32.21a121.52,121.52,0,0,0-36.95,15.92C452.25,372.56,459.42,353,452.81,337.56Z" transform="translate(-66.28 -3.27)"/><path d="M426.58,366.6c-.24,7.49-.7,22.47-1.72,25.4,0,0,7.51-24.51,6.62-31.37s-18.77-20.43-23.86-31.13c-5-10.45-3.87-32.15.53-43.54a168.65,168.65,0,0,1,15.17-18.31c19.2,34.29,53.62,74,59.53,80.68a6.88,6.88,0,0,0-.32,2.33,7,7,0,0,0,7.27,6.8,7.34,7.34,0,0,0,.82-.08l-.1.15.51-.06a5.18,5.18,0,0,0-.74,2.42c-7.75,1.62-42.66,10.33-64.4,39.51,40.36-40.82,86.21-37.28,86.21-37.28l-7.37-10.21a14.73,14.73,0,0,0-4.07-7.17c-1.55,1.7-2.92,3.3-4.12,4.74a7,7,0,0,0-7.21-6.09,6.54,6.54,0,0,0-1.33.17c-4.66-5.28-38.29-43.78-58.17-78.08a25.8,25.8,0,0,1-12.26-7.78,25.2,25.2,0,0,0-3.78-5.35,27,27,0,0,1-2.69,2.19c-5.12,3.63-22,19.66-34.43,32.12A76.69,76.69,0,0,0,382,297.3c3.71,5.58,10.31,11.61,12.74,14.38s7.86,20.93,12.17,27.06S426.81,359.11,426.58,366.6Zm58-16a5,5,0,1,1,9.43,2.06c-.4.51-.75,1-1.08,1.43a5,5,0,0,1-8.35-3.49Z" transform="translate(-66.28 -3.27)"/><path d="M376.67,286.66A76.69,76.69,0,0,0,382,297.3c3.71,5.58,10.31,11.61,12.74,14.38s7.86,20.93,12.17,27.06c3.88,5.52,16.95,17.64,19.31,25.46-1.47-7.15-13.48-22.13-16.79-24.81-3.58-2.91-8.93-19.15-10-24.86s-3.14-18.27,2.18-27.72c5.21-9.24,20.81-23.72,21.48-24.35a24.93,24.93,0,0,1-5.55-4.76,25.2,25.2,0,0,0-3.78-5.35,27,27,0,0,1-2.69,2.19C406,258.17,389.09,274.2,376.67,286.66Zm53.16-21.18a24.69,24.69,0,0,1-6.64-3c28.23,55.42,62.34,80.69,62.34,80.69l-.88-3.48C474.55,328,447,295.18,429.83,265.48Z" transform="translate(-66.28 -3.27)"/><path d="M398.54,288.2s-3.49,11.67-2.19,21.39c0,0-7.74-5.69-9.93-9.62C386.42,300,395.53,291.5,398.54,288.2Z" transform="translate(-66.28 -3.27)"/><path d="M461.21,255.9s-11.37,11.26-23,12.75c0,0,10.39.86,22.61-8.71Z" transform="translate(-66.28 -3.27)"/><path d="M483.57,359s-15.13,4.53-25.59,10.76a67.82,67.82,0,0,1,23.17-13.33Z" transform="translate(-66.28 -3.27)"/><path class="cls-63" d="M486,347.92a7,7,0,1,0,6.71-7.36A7,7,0,0,0,486,347.92Zm2.06-.1a5,5,0,1,1,5.2,4.75A5,5,0,0,1,488.1,347.82Z" transform="translate(-66.28 -3.27)"/><path class="cls-25" d="M569.62,328.23s17.1,13.41,25,26.85c0,0-5.6,20.2-18.3,36.13s-34.11,25.72-34.11,25.72-22.36-19.3-47.9-57.64c0,0-2.1-4.13,3.12-7.43s59.11-24.19,59.11-24.19Z" transform="translate(-66.28 -3.27)"/><path class="cls-64" d="M542.22,416.93s-22.36-19.3-47.9-57.64c0,0-2.1-4.13,3.12-7.43s59.11-24.19,59.11-24.19l13.07.56s1.21.95,3.14,2.6l-3.28,2.77c1.64,19.11-31.45,33.66-31.45,33.66s17.86,29.87,25.53,29.9c5.55,0,13.52-8.07,17.52-12.56-1.46,2.24-3,4.46-4.75,6.61C563.64,407.13,542.22,416.93,542.22,416.93Z" transform="translate(-66.28 -3.27)"/><path class="cls-65" d="M578,338.1s10.12,7.59,14.86,16.87l-2.75,9-.4-8.89Z" transform="translate(-66.28 -3.27)"/><path class="cls-25" d="M494.32,359.29s-2.1-4.13,3.12-7.43a87.88,87.88,0,0,1,8.65-4c4.1,2.5,11.25,7.43,16.61,11.28,7.54,5.41,31.28,38.08,33.8,42.95a7.22,7.22,0,0,1-.12,6.73,114.09,114.09,0,0,1-14.16,8.11S519.86,397.63,494.32,359.29Z" transform="translate(-66.28 -3.27)"/><path class="cls-25" d="M572.63,326.94s-22.88,28.28-41.23,37.94c0,0-21.3-12.84-37.29-10.19,0,0,15.71-25.65,47.89-43.23C542,311.46,561.94,311.32,572.63,326.94Z" transform="translate(-66.28 -3.27)"/><path class="cls-66" d="M539.48,315a123.18,123.18,0,0,0-38.36,33.59S529,328.55,539.48,315Z" transform="translate(-66.28 -3.27)"/><path class="cls-25" d="M531.4,364.88S510.1,352,494.11,354.69l.1-.14c16-5.7,29.05,6.47,38.08,4.53,8.75-1.87,37.85-30.11,40.17-32.38l.17.24S549.75,355.22,531.4,364.88Z" transform="translate(-66.28 -3.27)"/><path class="cls-67" d="M548.2,355.3c3.47-.16,7.93-2.31,11.94-5.76,6.58-5.66,9.36-12.46,6.48-15.82A5.45,5.45,0,0,0,562,332c-3.48.16-7.94,2.31-12,5.76-6.58,5.66-9.37,12.46-6.48,15.82a5.49,5.49,0,0,0,4.67,1.7Z" transform="translate(-66.28 -3.27)"/><path class="cls-68" d="M544.77,352.53c2.2,2.57,8.61.68,14.3-4.22s8.52-11,6.31-13.52-8.61-.68-14.3,4.22S542.56,350,544.77,352.53Z" transform="translate(-66.28 -3.27)"/><path class="cls-69" d="M544.77,352.53c2.2,2.57,8.61.68,14.3-4.22s8.52-11,6.31-13.52-8.61-.68-14.3,4.22S542.56,350,544.77,352.53Z" transform="translate(-66.28 -3.27)"/><path class="cls-70" d="M547.23,349.68c1.8,2.08,7,.55,11.61-3.43s6.91-8.88,5.12-11-7-.55-11.61,3.43S545.44,347.6,547.23,349.68Z" transform="translate(-66.28 -3.27)"/><path class="cls-25" d="M425.31,250.83c19.43,39,66.66,90.54,66.66,90.54l-3,2.43a5.32,5.32,0,0,0-1.79,2.77S440,295,420.56,256Z" transform="translate(-66.28 -3.27)"/><path class="cls-25" d="M487.22,346.57S440,295,420.56,256l4.75-5.2c1,1.95,2,3.94,3.12,5.95l-2.7,3.23c20.12,38.93,57.1,78.06,62.93,84.11A5.38,5.38,0,0,0,487.22,346.57Z" transform="translate(-66.28 -3.27)"/><path class="cls-1" d="M294.47,371.49s37.73-17.83,76.4-53c0,0,8.85-7.88,13.54-18.45,0,0,34-36.65,45.94-52.16,0,0,3.73-6.5,8-13s6.2-40.56-8.44-46.22-32.12,27.36-35,39.57c0,0-18,45.7-28.51,56,0,0-24.6,15.51-37.67,31.64s-26.56,35.74-38.54,38-14.56-3.93-20.69-6S260.8,346,258,347.56c0,0-8.82,2.13-10.8,2.8s-6.81,2-7.2,6.08-.94,11-2,12.75c0,0,4.15,2.68,7.3-4.08,0,0,3.48,7,9.25,7.35a9.38,9.38,0,0,0,7,2s2.74,3.33,5.29,2.35,2.75-2.72-1.24-8.29c0,0,.3-6.05,1.08-7.82s4.83-1.37,9.14-1.28S295,363.7,294.47,371.49Z" transform="translate(-66.28 -3.27)"/><path class="cls-71" d="M434,224.11c-9.5,19.48-29.95,29-45.67,21.38l-.53-.29c4.18-9.53,7.11-17,7.11-17,2.9-12.21,20.37-45.23,35-39.57,3.92,1.52,6.66,5.08,8.48,9.6A45,45,0,0,1,434,224.11Z" transform="translate(-66.28 -3.27)"/><path class="cls-1" d="M344.28,328.91c-18,16-37.24,24.63-46.76,21.69,10-6.68,20.75-21.83,31.23-34.76,13.07-16.13,37.67-31.64,37.67-31.64a27.56,27.56,0,0,0,2.85-3.37l.07.07C376.39,288.82,365.17,310.32,344.28,328.91Z" transform="translate(-66.28 -3.27)"/><path class="cls-1" d="M299,357.6c-1.46,4.3-13,4.26-25.8-.08-7.58-2.57-13.89-6.08-17.47-9.41l2.24-.55c2.81-1.57,5.39-1.69,11.53.34s8.71,8.23,20.69,6a18.49,18.49,0,0,0,5.91-2.37C298.48,353.72,299.6,355.88,299,357.6Z" transform="translate(-66.28 -3.27)"/><path class="cls-1" d="M275.79,359.4c-4.31-.09-8.36-.48-9.14,1.28s-1.08,7.82-1.08,7.82c4,5.57,3.78,7.31,1.24,8.29s-5.29-2.35-5.29-2.35a9.38,9.38,0,0,1-7-2c-5.77-.31-9.25-7.35-9.25-7.35-3.15,6.76-7.3,4.08-7.3,4.08,1.07-1.78,1.62-8.71,2-12.75s5.22-5.42,7.2-6.08,10.8-2.8,10.8-2.8c2.81-1.57,5.39-1.69,11.53.34s8.71,8.23,20.69,6c3.81-.72,7.78-3.2,11.83-6.76l18.55,9.58a271.71,271.71,0,0,1-26.12,14.82C295,363.7,280.11,359.49,275.79,359.4Z" transform="translate(-66.28 -3.27)"/><path class="cls-1" d="M380.46,261.13c-4.82,9.86-10,19.11-14,23.07,0,0-4.1,2.59-9.85,6.75,4.51-2.31,10.56-5.24,12.41-5.33C371.25,285.52,377.42,269.46,380.46,261.13Zm-86,110.36s37.73-17.83,76.4-53c0,0,8.85-7.88,13.54-18.45,0,0,34-36.65,45.94-52.16,0,0,1.12-1.94,2.83-4.76-4.79,5.49-15.48,17.55-20.29,21.29-6.3,4.89-30.13,29-32.3,31.77s-4.76,13.26-18,26.14c-13.06,12.72-52.63,42.74-68.14,48.95A1.21,1.21,0,0,1,294.47,371.49Zm74-72.42s3.7-2.85,5.56-4.09a10.29,10.29,0,0,1,4.54-1.36C371.12,290.51,368.45,299.07,368.45,299.07Z" transform="translate(-66.28 -3.27)"/><path class="cls-1" d="M409.87,269.75s-17.09,16.13-20.43,18.58-7.88,8-8.58,9.6-9.53,18.08-14,21.73a59.71,59.71,0,0,0,16-19.33,20.2,20.2,0,0,1,3.25-4.37C387.62,294.74,409.87,269.75,409.87,269.75Z" transform="translate(-66.28 -3.27)"/><path class="cls-1" d="M261.52,374.44a9.38,9.38,0,0,1-7-2c-5.77-.31-9.25-7.35-9.25-7.35-3.15,6.76-7.3,4.08-7.3,4.08.92-1.53,1.46-6.89,1.84-10.93a3,3,0,0,0,2.71,1.71,14.29,14.29,0,0,1,2.25-3.65c1.55-1.71,6.2-2.78,6.2-2.78-3.47,1.61-5.48,5.3-6,6.45a3.8,3.8,0,0,0,2.71,2.44c.48-1,3-5.72,6.78-6.75,0,0-4.51,3.83-4.68,6.89a7,7,0,0,0,5.38,1.56c.19-.55,1.8-4.94,5-6.89,0,0-2.15,3.19-2.34,5.78h0c5,.34,3.62,3.86,5.84,6.06,1.81,1.81,3.35,6,3.84,7.38a5.85,5.85,0,0,1-.71.34C264.26,377.77,261.52,374.44,261.52,374.44Z" transform="translate(-66.28 -3.27)"/><path class="cls-72" d="M265.2,362.67a6.13,6.13,0,0,1,2.1-4.6c.94-.67,11.76.18,16.56,3.19a29.45,29.45,0,0,0-8.07-1.86c-4.31-.09-8.36-.48-9.14,1.28s-1,7-1.08,7.73h0A46,46,0,0,1,265.2,362.67Z" transform="translate(-66.28 -3.27)"/><path class="cls-73" d="M264.25,373.36a5.51,5.51,0,0,0-2.61-.56s1.17,4.55,4.5,3.92C266.14,376.72,265.34,374,264.25,373.36Zm-8.34,0a4.63,4.63,0,0,0,3.89,1.07s-1.05-1.87-2.4-2.19S255.7,373,255.91,373.35Zm-17.74-4.17s1.93.2,2.67-.41,1.77-3.15.9-3.49a6.6,6.6,0,0,0-2.6-.08S238.23,368.41,238.17,369.18Z" transform="translate(-66.28 -3.27)"/><path class="cls-74" d="M257.25,361.79c-.3,1.3.66,3.82,1,5a55.29,55.29,0,0,0,2.89,7.65l.36,0a6.24,6.24,0,0,0,.47.5,48,48,0,0,1-3.52-10.28c-.61-3,.26-5.18,2-7.5a0,0,0,1,0-.06-.05C259.44,358.21,257.56,360.43,257.25,361.79Zm-7.06-1.36c-.88,2-1,2.83-.16,4.91a39.54,39.54,0,0,0,4.06,7.08l.44,0a6.71,6.71,0,0,0,.77.56,33.25,33.25,0,0,1-3.88-6.34c-.68-1.61-1.81-4.32-.9-6.08a14.32,14.32,0,0,1,4.31-5.09s0-.1-.05-.08A11.28,11.28,0,0,0,250.19,360.43Zm-5.41,5.65c.17-.3.33-.62.5-1,0,0,.12.25.35.64-.07-.22-.14-.45-.19-.67-.32-1.33.08-2.73-.22-3.94-.77-3.17,3.74-6.14,5.9-7.54.08-.05,0-.19-.07-.15-2.57,1.22-5.51,3.43-6.33,6.31A10.46,10.46,0,0,0,244.78,366.08Z" transform="translate(-66.28 -3.27)"/><path class="cls-1" d="M365.82,130c.54-3.1.83-4.3,0-8.19a41.27,41.27,0,0,1,0-13.81c.68-3.61,2.47-24.16,13.09-30.79,0,0,25.85-9,47.74-.13l19,16,5.93,10.31L451,120.51A82.48,82.48,0,0,1,453,150.8a35.45,35.45,0,0,0-1.92,3.81,33.6,33.6,0,0,0-1.44,4c-1.09,2.63-8,18.61-26.22,25.23-2.69,1-24,12.36-35.4-2.14-7.25-9.21-20.88-31.44-22.33-44.34A34.94,34.94,0,0,1,365.82,130Z" transform="translate(-66.28 -3.27)"/><path class="cls-75" d="M439.06,103.09s-2.6-7.16-4.81-10.7-.8-17.47-34.6-15.7c0,0-15.66.72-20.08,3.42,0,0-9.5,8.8-10.52,26.65,0,.29,0,.59-.05.9-.74,18.45,22.17,2.39,22.17,2.39l21.61.15Z" transform="translate(-66.28 -3.27)"/><path class="cls-76" d="M403.15,148.28c7.33-.34,13.52,4.72,13.82,11.3s-5.4,12.19-12.73,12.52-13.52-4.72-13.82-11.3S395.82,148.61,403.15,148.28Z" transform="translate(-66.28 -3.27)"/><path class="cls-77" d="M365.82,130c.54-3.1.83-4.3,0-8.19,0-.07,0-.14-.05-.21a30.39,30.39,0,0,1,13.93,10.91c7.91,10.93,8.09,24.31.39,29.9a12.45,12.45,0,0,1-3.59,1.79c-5.27-9.24-10-19.55-10.83-26.86A34.94,34.94,0,0,1,365.82,130Z" transform="translate(-66.28 -3.27)"/><path class="cls-78" d="M433.66,162.41c-9-3-13-15.76-8.75-28.58S439.86,113,448.9,116a12.31,12.31,0,0,1,2.22,1l-.12,3.54s2.27,12.51,2.48,16.94-4,13.48-4,13.48c-.95,1.58-1.21,3.3-2.17,4.88,0,0-1.2,2.31-3.41,5.73A13.77,13.77,0,0,1,433.66,162.41Z" transform="translate(-66.28 -3.27)"/><path class="cls-79" d="M442.22,118.86s5.31-10.82-4-16.19c0,0-10-3.29-16.71-.09a51.8,51.8,0,0,0-10.78,6.81s-2,11.69,2.76,15.56l11.76-.2s8.26-2.08,8.77-2.1,4.23-.71,4.23-.71l2.52-1Z" transform="translate(-66.28 -3.27)"/><path class="cls-80" d="M392.92,125.89s2.07-10.67-1.4-15.63l-5.16-4.7-5.9-2.12-4.59.21-3.37.83L369.84,106l-3.11,2.87s-2.1,13.74,5.18,16.31,17.6.9,17.6.9Z" transform="translate(-66.28 -3.27)"/><path class="cls-81" d="M415.48,149.42s-1.59-1.3-5.15-.79-5,3.12-9.25,2.81-5.39-2.14-5.39-2.14-3.45-1-4.39.88c0,0,1.49,2.66,2.35,3a10.87,10.87,0,0,0,9.75,4.33c6.63-.47,9.77-2.66,11.35-5.46A5.8,5.8,0,0,0,415.48,149.42Z" transform="translate(-66.28 -3.27)"/><g class="cls-82"><path class="cls-83" d="M399.61,149.28s7.23,1.29,6.9-7.44.08-15.35.08-15.35l-9.43-1.42s.36,10.94-.75,15.31S394.21,148.61,399.61,149.28Z" transform="translate(-66.28 -3.27)"/></g><path class="cls-84" d="M411.38,144.66c1.08-3.23,4.33,2.36,3.62,2.82C413.35,148.57,410.82,146.31,411.38,144.66Z" transform="translate(-66.28 -3.27)"/><path class="cls-85" d="M391.36,149c1.91-.2,1.85-3.67,2-5.08-1.62.72-1.88,3.19-2.15,4.63Z" transform="translate(-66.28 -3.27)"/><path d="M411.52,150.45a13.12,13.12,0,0,0-4.29,1.3S410.7,153,411.52,150.45Zm-17,.78s.25,1.69,3.05,1.39l-.53-.4-1.32-1Z" transform="translate(-66.28 -3.27)"/><path class="cls-86" d="M412.23,153h0c1.85-.41,3.57-1.19,3.79-3.28.18-1.82-.93-3.75-1.93-5.19a0,0,0,0,0-.07.05,9.34,9.34,0,0,1,1.57,4.94C415.5,151.4,414,152.54,412.23,153Zm-6.89.07a.11.11,0,0,0,.14.16,23.79,23.79,0,0,1,3.9-2.22,7.76,7.76,0,0,1,4.44-.44,0,0,0,0,0,0,0,7,7,0,0,0-4.57.14A9.6,9.6,0,0,0,405.34,153Zm-12.09-1.54a3.48,3.48,0,0,1,2.14-.15,7.88,7.88,0,0,1,1.55.74H397a5.74,5.74,0,0,0,2.31,1.62,8.6,8.6,0,0,0,5.81-.19c.07,0,0-.13,0-.11a8.41,8.41,0,0,1-5.79-.09,8,8,0,0,1-3.72-3.88s-.1,0-.08,0a8,8,0,0,0,.84,1.74,3.14,3.14,0,0,0-3.12.19S393.2,151.52,393.25,151.5Zm-2.17-1.87A5.09,5.09,0,0,0,393.8,153s.07,0,0-.07a5.35,5.35,0,0,1-2.42-3.8,10.69,10.69,0,0,1,.43-3.73.08.08,0,0,0-.15-.05A6.42,6.42,0,0,0,391.08,149.63Z" transform="translate(-66.28 -3.27)"/><path class="cls-87" d="M419.93,164.17s-4.26,3.56-6.12,5.39a12.44,12.44,0,0,1-9.38,3.89c-4.62-.11-7.21-1.52-8.24-3.17a59.13,59.13,0,0,0-5.24-5.87s4.65.63,5,.61,6.84-.3,7.37-.2Z" transform="translate(-66.28 -3.27)"/><path class="cls-88" d="M391,164.41s2.07,2.07,3.66,3.88l.14,0c6.58-1.39,19-.57,20.93-.43,2-1.75,4.25-3.66,4.25-3.66l-16.57.65c-.53-.1-7,.17-7.37.2S391,164.41,391,164.41Zm12.5,8.05a24.14,24.14,0,0,1-7.26-2.18c1,1.65,3.62,3.06,8.24,3.17a12,12,0,0,0,7.84-2.55C411.39,171.27,407.12,172.93,403.45,172.46Z" transform="translate(-66.28 -3.27)"/><path class="cls-89" d="M412.56,168.59s-10-1.35-15.93.34l.88,1.4s4.93,2.85,13.22.61Z" transform="translate(-66.28 -3.27)"/><path class="cls-90" d="M390.37,163.66c1.22.58,2.46,1.29,3.81-.24a7.52,7.52,0,0,1,5.13-2.17,11.43,11.43,0,0,1,3.52,1.49,8.07,8.07,0,0,1,4.92-1.49c3.29-.08,9.37,2.3,11.22,2.32s4-1.83,4-1.83c-3.77,5.11-11.24,3.61-16.74,4.22l-.37,0-.27.26c-.89.45-1.94.52-2.84,1a4.47,4.47,0,0,1-2.07-.66h-.08c-2.71-1.28-4.22,0-6.37-.66a9.52,9.52,0,0,1-6-4A8,8,0,0,0,390.37,163.66Z" transform="translate(-66.28 -3.27)"/><path class="cls-91" d="M402.62,166.7a7.3,7.3,0,0,1,1.39-.46,7.51,7.51,0,0,0,1.24-.41l.21-.21a.64.64,0,0,1,.31-.15l.37,0c.54-.06,1.12-.1,1.79-.13.83,0,1.69-.05,2.53-.07h.05c.85,0,1.74,0,2.62-.07a17.8,17.8,0,0,0,5.92-1.06H419a21.39,21.39,0,0,1-4.12-.92,29.79,29.79,0,0,0-7.08-1.41h-.25a7.53,7.53,0,0,0-4.33,1.36.56.56,0,0,1-.32.13.52.52,0,0,1-.3-.08,10.45,10.45,0,0,0-3.27-1.41H399a7.13,7.13,0,0,0-4.46,2,2.8,2.8,0,0,1-2,1.09,10.9,10.9,0,0,0,1.73.55h0a4.67,4.67,0,0,0,1.57.17l.78-.06.86-.07a6.53,6.53,0,0,1,3.1.58.5.5,0,0,1,.26.08,3.88,3.88,0,0,0,1.69.58Z" transform="translate(-66.28 -3.27)"/><path class="cls-92" d="M406.21,166.07c3.08-.18,6.23.09,9.29-.38,2.85-.44,5.72-1.51,7.46-3.93,0,0,0-.08,0,0-4,5.12-11.1,3.25-16.72,4.12A.12.12,0,1,0,406.21,166.07ZM388.1,162c1,2,3.41,3.36,5.53,3.95a8.12,8.12,0,0,0,3.14.28,9,9,0,0,1,3.42.24,4,4,0,0,0,1.91.89c.61.11.9-.22,1.5-.4a12.36,12.36,0,0,0,2-.67s0-.06,0,0a13.78,13.78,0,0,1-1.76.55,3.06,3.06,0,0,1-1.42.21,7.32,7.32,0,0,1-2.74-1.35c-.06,0-.13,0-.09.1a3.1,3.1,0,0,0,.44.53,5.53,5.53,0,0,0-2.56-.45,10.93,10.93,0,0,1-3.18-.07,11.28,11.28,0,0,1-3.35-1.33,9.71,9.71,0,0,1-2.68-2.51C388.16,161.85,388.07,161.92,388.1,162Z" transform="translate(-66.28 -3.27)"/><path class="cls-93" d="M443.06,106.09a31.32,31.32,0,0,0-9.67-2.22,32.23,32.23,0,0,0-16.87,3.66s-3.56,1.75-5.83,1.86c0,0,1.82-5.09,3.37-6.07S431.13,93.9,443.06,106.09Z" transform="translate(-66.28 -3.27)"/><path class="cls-94" d="M366.36,109.6a17,17,0,0,1,8.27-3.74,17.53,17.53,0,0,1,12.35,3s2.89,1.46,4.65,1.38c0,0-1.81-4.92-3.08-5.77S374.59,96.49,366.36,109.6Z" transform="translate(-66.28 -3.27)"/><path class="cls-95" d="M440.49,121c-1.13-3.88-4.87-6.19-9.54-6.81a18.62,18.62,0,0,0-6.36.26,14.27,14.27,0,0,0-7.3,4.32s-.1,0-.07,0a14.59,14.59,0,0,1,7.29-4.47,20.27,20.27,0,0,1,6.54-.42,13.77,13.77,0,0,1,6.12,2.08,7.86,7.86,0,0,1,3.34,5.09s0,0,0,0Z" transform="translate(-66.28 -3.27)"/><path d="M418.3,120.81c.91-.82,3.81-4.62,9.45-5.27a5.27,5.27,0,0,0-.29-2.21,3.86,3.86,0,0,1,.82,2.16,15.83,15.83,0,0,1,1.7,0,11.31,11.31,0,0,1,3.07.52,5.33,5.33,0,0,0,.42-2.39,3.79,3.79,0,0,1,.1,2.58,9.91,9.91,0,0,1,3.14,1.92,5.06,5.06,0,0,0,2.87-2.67,4.85,4.85,0,0,1-2.25,3.28,10.57,10.57,0,0,1,1.7,2.37,6.12,6.12,0,0,0,3.22-2.22,5.39,5.39,0,0,1-2.95,3c-5.87,8.22-18.42,4.72-18.42,4.72l-7-1.43C416.32,124.27,417.28,121.74,418.3,120.81Z" transform="translate(-66.28 -3.27)"/><path class="cls-70" d="M437.6,122.37c-3.29,5.8-14,4.93-19.78,3.44l-4.07-.79c4.42-2,6.57-6.74,12-8,5.87-1.24,10,.71,12.32,4.7Z" transform="translate(-66.28 -3.27)"/><path d="M423,121.72a5.26,5.26,0,0,1,1.43-3.81,8.39,8.39,0,0,1,2.15-.89,10.07,10.07,0,0,1,5.64.1,5.29,5.29,0,0,1,2.27,4.08,5.47,5.47,0,0,1-4.14,5.44,15.6,15.6,0,0,1-2.07.21A5.54,5.54,0,0,1,423,121.72Z" transform="translate(-66.28 -3.27)"/><path class="cls-96" d="M433.85,121.23a5.09,5.09,0,0,1-10.16.46,4.85,4.85,0,0,1,3.68-4.83,10.71,10.71,0,0,1,1.74-.18A4.89,4.89,0,0,1,433.85,121.23Z" transform="translate(-66.28 -3.27)"/><path d="M425.77,121.6a3,3,0,1,0,2.87-3A2.92,2.92,0,0,0,425.77,121.6Z" transform="translate(-66.28 -3.27)"/><path class="cls-97" d="M426.65,121.56a2.13,2.13,0,1,0,2-2.1A2.05,2.05,0,0,0,426.65,121.56Z" transform="translate(-66.28 -3.27)"/><path class="cls-70" d="M427.43,119.17a1.23,1.23,0,0,0,2.46-.11,1.23,1.23,0,0,0-2.46.11Z" transform="translate(-66.28 -3.27)"/><path class="cls-70" d="M428.3,124.25a.6.6,0,0,0,1.19-.06.6.6,0,0,0-1.19.06Z" transform="translate(-66.28 -3.27)"/><path d="M413.76,125c4.52-1.82,6.57-6.4,11.57-7.65a12.9,12.9,0,0,1,7.78.24,10.28,10.28,0,0,1,4.91,4.16s.07,0,.05,0a9.66,9.66,0,0,0-4.73-4.48,13.19,13.19,0,0,0-7.43-.46c-5.4,1.1-7.69,5.9-12.18,8.19C413.71,125,413.73,125.05,413.76,125Zm4.06.77s0,0,0,0A34.46,34.46,0,0,0,428.4,127a.17.17,0,0,0,.16.07.16.16,0,0,0,.15-.1c3.78-.31,7.22-1.56,8.9-4.55,0,0,0,0,0,0-1.75,2.87-5.15,4.12-8.89,4.45,0,0-.07-.08-.16-.08a.14.14,0,0,0-.15.11A35.3,35.3,0,0,1,417.82,125.8Z" transform="translate(-66.28 -3.27)"/><path class="cls-95" d="M370.15,124.15c.62-4,3.57-6.62,7.45-7.64a13.33,13.33,0,0,1,5.37-.28,11.74,11.74,0,0,1,6.51,3.72s.09,0,0,0A11.83,11.83,0,0,0,383,116a14.35,14.35,0,0,0-5.54.13,10.5,10.5,0,0,0-5,2.61,8.28,8.28,0,0,0-2.39,5.38Z" transform="translate(-66.28 -3.27)"/><path d="M388.81,122.12c-.84-.75-3.6-4.32-8.4-4.49a6.27,6.27,0,0,1,.06-2.25,4.42,4.42,0,0,0-.51,2.24,10.42,10.42,0,0,0-1.44.11,8.16,8.16,0,0,0-2.53.78,6.26,6.26,0,0,1-.56-2.37,4.5,4.5,0,0,0,.14,2.6,8.45,8.45,0,0,0-2.48,2.19,4.65,4.65,0,0,1-2.64-2.44,4.85,4.85,0,0,0,2.16,3.1,11.64,11.64,0,0,0-1.22,2.52,5.17,5.17,0,0,1-2.9-2,4.93,4.93,0,0,0,2.73,2.74c5.64,7.75,15.9,3.18,15.9,3.18l5.78-2C390.76,125.41,389.75,123,388.81,122.12Z" transform="translate(-66.28 -3.27)"/><path class="cls-70" d="M372.7,125.31c3.26,5.54,12.21,3.75,16.94,1.77L393,126c-3.88-1.59-6.1-6.2-10.75-7-5.05-.75-8.35,1.56-10,5.76Z" transform="translate(-66.28 -3.27)"/><path d="M377.57,123.76a5.44,5.44,0,0,1,2.63-4.89,8.53,8.53,0,0,1,2.6.08c2.43.49,4.09,2.38,5.78,4.16,0,0,0,.1,0,.15a5.44,5.44,0,0,1-3.28,5.23,17.4,17.4,0,0,1-2.71.44A5.48,5.48,0,0,1,377.57,123.76Z" transform="translate(-66.28 -3.27)"/><path class="cls-98" d="M383.3,128.33a4.82,4.82,0,0,1-1.42-9.5l.92.12c2.06.42,3.57,1.84,5,3.35a5.37,5.37,0,0,1,.15,1A4.86,4.86,0,0,1,383.3,128.33Z" transform="translate(-66.28 -3.27)"/><path d="M380.21,123.64a2.88,2.88,0,1,0,2.74-3A2.86,2.86,0,0,0,380.21,123.64Z" transform="translate(-66.28 -3.27)"/><path class="cls-99" d="M381.05,123.6a2,2,0,1,0,1.94-2.1A2,2,0,0,0,381.05,123.6Z" transform="translate(-66.28 -3.27)"/><path class="cls-70" d="M381.8,121.2a1.18,1.18,0,1,0,1.12-1.22A1.17,1.17,0,0,0,381.8,121.2Z" transform="translate(-66.28 -3.27)"/><path class="cls-70" d="M382.64,126.31a.57.57,0,0,0,1.14,0,.57.57,0,0,0-1.14,0Z" transform="translate(-66.28 -3.27)"/><path d="M393,126c-4-1.46-6.06-5.87-10.38-6.71a9.22,9.22,0,0,0-6.52.91,9.52,9.52,0,0,0-3.78,4.58s-.06,0-.05,0a9.16,9.16,0,0,1,3.61-4.88,9.4,9.4,0,0,1,6.2-1.1c4.64.65,7,5.27,10.94,7.19C393,125.94,393,126,393,126Zm-3.35,1.1s0,0,0,0a25.21,25.21,0,0,1-8.81,2,.15.15,0,0,1-.13.09.13.13,0,0,1-.13-.09c-3.21,0-6.21-1-7.88-3.81,0,0,0,0,0,0,1.71,2.73,4.68,3.69,7.85,3.71a.13.13,0,0,1,.13-.09.12.12,0,0,1,.14.09A25.12,25.12,0,0,0,389.63,127.07Z" transform="translate(-66.28 -3.27)"/><path d="M300.62,98.52a.45.45,0,0,1,.36-.07c.24,0,.39.33.55.57,2.24,3.34,2.35,3.39,4.4,0,1.68-2.73,4-1.32,6.53-.88-2.23-2.54-3.74-5-1-8.13-4.38,0-4.48-3-5.26-5.64-.29-1,.19-2.31-1.32-3-.5-.23-.38-1.2.14-1.38,1.47-.49,2.64-1.8,4.47-1.38a2.64,2.64,0,0,1,2.38,2.6c1.73-1.7,1-2.44-1.35-3.17-3.15-1-5.44-3.53-8.71-4.51,1.49-.53,2.62.34,3.89.82,1,.38,1.93,1.7,3.28.59.85.18,1.82,1,2.51,0s-.08-1.86-.77-2.65c-.91-1-2.41-1.27-3.45-2.13,1.37-.53,2.62.06,3.88.4a4.71,4.71,0,0,0,3.1.27c-2.48-1.32-4.87-2.67-7.35-3.88s-4-.79-4.9,1c-.63-1.94.4-2.62,2.25-2.48,1.5.11,3,.41,4.45.66s2.31-.17,2.45-1.73a9.2,9.2,0,0,1,1.16-4.6A6.84,6.84,0,0,1,318,57a5.27,5.27,0,0,0-4.54-.79c1.1-1.79,2.78-1.17,4.22-.73,2.86.86,5.67,1.2,8.51.06-.49-1.5-1.16-1.86-2.92-1.1-3.1,1.35-5.44.62-8-2-.39-.39-.73-.83-1.1-1.25-.94-1-1.81-2.55-3.59-1.76-1.57.71-1.44,2.24-1.21,3.65.07.45.06.9.1,1.66a7.41,7.41,0,0,1-2.2-4.5c-.25-1.89,0-3.67,2.2-4.66a5.65,5.65,0,0,1,6,.74c1,.73,1.27,2.21,2.86,2.29a7.29,7.29,0,0,1,1.26,1.69c.33.91.23,2.12,1.77,2a2.25,2.25,0,0,0,2.06-2.24c1.42-1.53,1.29-3.38,1.11-5.17-.16-1.5-1.46-1.79-2.78-1.42s-.45,1.34-.23,2a13.79,13.79,0,0,0,.9,1.87L321,47.2l-.82-.57c-.41-1.63-2-2.75-2.27-4.46-.49-3.61.15-6.12,4.4-6.07-.45-1.6-.91-3.16-1.35-4.74a3.64,3.64,0,0,0-1.39-2.12,1.73,1.73,0,0,0-2.26-.12c-1.18.89-.26,1.72.19,2.59-1.63.05-2.59-.55-2.8-1.9a2.78,2.78,0,0,1,1.86-3.2c2.85-1.06,4.94.33,6.67,2.3.89-1.2.12-2.43.51-3.7a2.61,2.61,0,0,1,2.75-2.2,53.28,53.28,0,0,1,6.18-.23,3.69,3.69,0,0,1,3.52,3.58c-.07,1.53-1,2.17-2.65,2,1.94-1.47,1.59-2.92-.84-3.88-1.44-.57-2.43.13-3.35.89A2.36,2.36,0,0,0,328.29,28,2.56,2.56,0,0,0,331,29.65a19.58,19.58,0,0,0,6.08-1c.81-.29,1.52-.78,1.59-1.6a21,21,0,0,0-1.17-9.64c-.46-1.16-1.08-2.35-2.54-2s-1,1.75-1,2.78c0,.66-.1,1.43.52,1.94.89.72-.17.68-.4.82-1.06.65-.45-.32-.52-.52a16,16,0,0,1-.54-5.67A2.68,2.68,0,0,1,335.3,12a2.82,2.82,0,0,1,3.13,1.34,27.2,27.2,0,0,1,2.11,3.55c.33.7.59,1.67,1.42,1.75,1,.1,1.41-.93,1.87-1.63a25.24,25.24,0,0,1,2.79-3.76c1.46-1.53,2.57-1.51,3.84.2a18.21,18.21,0,0,0,3.13,3.86,2.5,2.5,0,0,0,2.51.58c.95-.33,1.19-1.1,1.35-2,.89-5,3.46-6.43,8.65-6.74a10.43,10.43,0,0,1,5.59,1.12,19.07,19.07,0,0,0,13.72,2.17,27,27,0,0,0-.78-4.16A3.49,3.49,0,0,0,381,5.8c-1.74.15-2,1.62-2.05,3a1.6,1.6,0,0,0,1.36,1.71c1.29.19,1-.91,1.22-1.76a1.72,1.72,0,0,1-.5,2.41,2.7,2.7,0,0,1-2.6.14c-1-.38-1.06-1.28-1-2.11,0-2.71,4.39-6.33,7-5.85a4.53,4.53,0,0,1,3.79,3.81c.58,2.27.88,3,2.42,3.16l.19-.16c3.4.73,4.48-1.57,5.71-3.44,1.45-2.2,3.56-2.64,6.12-2.22,3.4.55,4.66,1.66,4.92,4.21.42,4.05.42,4.05,5.29,4l1.6,0c3.75-.13,4-.31,4.75-3.43a4.72,4.72,0,0,1,3.89-4c2.72-.59,7.46,2.85,7.61,5.55,0,.83.05,1.73-1,2.15a3.06,3.06,0,0,1-2.78,0,1.68,1.68,0,0,1-.61-2.4c.31.84,0,2,1.36,1.72a1.63,1.63,0,0,0,1.38-1.77c-.07-1.35-.43-2.81-2.28-2.88a3.71,3.71,0,0,0-3.8,2.7,25.7,25.7,0,0,0-.68,4.19,21.53,21.53,0,0,0,14.5-2.74,11.53,11.53,0,0,1,5.89-1.36c5.52.09,8.3,1.46,9.43,6.37.2.86.47,1.62,1.5,1.91a2.8,2.8,0,0,0,2.65-.69,18.08,18.08,0,0,0,3.17-4c1.29-1.77,2.48-1.83,4.07-.36a24.77,24.77,0,0,1,3.11,3.64c.5.68,1,1.69,2,1.55.88-.12,1.12-1.09,1.45-1.82a25.55,25.55,0,0,1,2.11-3.63,3.07,3.07,0,0,1,3.27-1.47,2.7,2.7,0,0,1,2.47,2.59,14.76,14.76,0,0,1-.37,5.69c-.06.21.62,1.15-.53.55-.24-.13-1.37,0-.46-.81.65-.53.52-1.29.5-2-.05-1,.37-2.47-1.16-2.74s-2.17.94-2.62,2.12a19.88,19.88,0,0,0-.88,9.68c.09.82.87,1.28,1.74,1.54a22.11,22.11,0,0,0,6.49.76,2.73,2.73,0,0,0,2.84-1.74c.38-1.12-.33-1.95-1.22-2.59s-2.08-1.39-3.59-.76c-2.54,1.07-2.87,2.53-.75,3.92-1.77.22-2.76-.38-2.89-1.9a3.81,3.81,0,0,1,3.61-3.72,62.57,62.57,0,0,1,6.57,0,2.74,2.74,0,0,1,3,2.09c.46,1.25-.31,2.51.67,3.68,1.77-2,3.94-3.53,7-2.59a2.77,2.77,0,0,1,2.09,3.12c-.18,1.36-1.18,2-2.91,2,.44-.89,1.4-1.76.11-2.59a1.91,1.91,0,0,0-2.39.21,3.68,3.68,0,0,0-1.41,2.18c-.4,1.59-.83,3.18-1.26,4.79,4.52-.23,5.29,2.25,4.9,5.88-.19,1.72-1.88,2.91-2.25,4.56l-.85.6-1.59.23a14.08,14.08,0,0,0,.89-1.91c.21-.69,1.22-1.67-.32-2s-2.79,0-2.9,1.53c-.13,1.8-.19,3.65,1.36,5.12a2.31,2.31,0,0,0,2.28,2.15c1.63.09,1.48-1.12,1.8-2a7.27,7.27,0,0,1,1.28-1.74c1.69-.15,1.92-1.65,2.95-2.41a6.34,6.34,0,0,1,6.39-1c2.4.9,2.69,2.67,2.5,4.57a7.26,7.26,0,0,1-2.18,4.58c0-.75,0-1.21.06-1.65.19-1.42.27-3-1.42-3.6-1.92-.72-2.79.82-3.75,1.91-.37.43-.72.88-1.12,1.29-2.62,2.69-5.07,3.51-8.42,2.3-1.89-.69-2.59-.3-3.06,1.22,3.06,1,6,.56,9-.42,1.51-.5,3.27-1.19,4.5.55a5.94,5.94,0,0,0-4.79,1c2.93.06,4.83,1,6.2,2.74a8.84,8.84,0,0,1,1.41,4.55c.2,1.55,1,1.94,2.66,1.62s3.11-.67,4.69-.84c2-.21,3.09.42,2.49,2.38-1-1.79-2.74-2.11-5.24-.83s-5.08,2.77-7.66,4.19a5.24,5.24,0,0,0,3.27-.41c1.33-.38,2.64-1,4.11-.56-1.07.91-2.66,1.2-3.59,2.28-.7.82-1.53,1.73-.71,2.68s1.76.06,2.65-.16c1.48,1.06,2.39-.3,3.46-.73,1.33-.53,2.5-1.45,4.11-1-3.44,1.11-5.77,3.79-9.08,4.88-2.52.82-3.22,1.59-1.32,3.22,0-1.31.75-2.27,2.43-2.7,1.92-.5,3.21.76,4.79,1.19.56.16.72,1.13.2,1.37-1.58.73-1,2-1.29,3-.73,2.65-.73,5.62-5.39,5.86,3,3,1.49,5.53-.78,8.16,2.71-.55,5.08-2,7,.61,2.3,3.25,2.41,3.2,4.67-.24.23-.35.42-.77.94-.54s.58.72.14,1.15c-.94.91-1,2.11-1.55,3.16s-.62,1.94-2.15,2a3,3,0,0,1-2.94-1.44c-.79-1.21-1.84-2.38-4.06-1.74,2.05,1.19,2.47,3.35,4.44,4.41a4.56,4.56,0,0,1,1.37,1.36A3.48,3.48,0,0,1,509.2,111c-2.09,1.16-3.56.77-5.18-1.36a12.75,12.75,0,0,0-1.56-1.81c-.39-.35-1-.77-1.62-.29a.84.84,0,0,0-.07,1.26c1.11,1.54.22,3.3.53,4.82.68,3.25-2,2.7-3.86,3.07a20.53,20.53,0,0,1-3.29.07,2.41,2.41,0,0,0,2.69,1.55c1.41-.14,2.82-.29,4.23-.46,1.12-.13,2.28-.11,2.83.8,1,1.71,1.8,3.73.75,5.48-.95,1.59-3.27,2-5.3,2.27-.62.09-1.67-1.21-1.81.49-.1,1.27.59,1.43,1.89,1.5a5.21,5.21,0,0,1,3,.6c1.08.76,1.58,1.48,1.35,2.66a5.77,5.77,0,0,1-4.11,4.87c1.38-1.75,1.87-3.23.24-4.39a2.72,2.72,0,0,0-3.36.1c-1.2,1.13-1.18,2.67.3,3.4,1.85.91,1.65,2.17,1.48,3.51-.19,1.58-1.92,1-2.94,1.43a4.74,4.74,0,0,1-1.94.67c-1.25-.13-1.18.33-1.2,1.14-.09,2.84-3,4.52-6.18,3.59-1-.3-1.77-.18-2.15.68s.61.87,1.23,1c1.87.26,1.33,1.52,1.39,2.51a2.29,2.29,0,0,1-1.59,2.44,12.79,12.79,0,0,1-2.51.15c-2.07,0-4.11,1.23-6.16.35-.94-.41-1.63-1.73-2.88-.89a3.84,3.84,0,0,0-1.81,3.68c.09.81.47,1.66,1.51,1.58s.78-1,.77-1.67c0-.33-.27-.77.51-.91,1.23,1.05,1.7,2.4.68,3.64s-2.69.78-4.16.42c-1.17-.29-1.58-1.37-2.66-1.73.37-2-1.31-4.08,1-6.12-2.44.09-3.56,1.38-3.81,2.69-.32,1.61.82,2.94,2.68,3.62-.07,1.06,1,1.53,1.57,2.27,1,1.4,1.17,2.63-.79,3.7.7-2.84.14-3.34-7.31-6.63-.12,1.83.1,4-3,4-2.12,0-4.36.29-6.19-1.16-.21,3.79-2.17,5.87-5.81,6.33-2.79.35-5.45-1-6.3-3.22.69.34,1.13.9,1.93,1.07,1.18.25,2.36.94,3.48,0,1.44-1.24.7-2.74.56-4.14s-1.53-.81-2.45-.88c-3-.26-5.43-3.36-3.64-5.34,1.4-1.54,2.48-4.11,5.76-3.74a.53.53,0,0,0,.61-.61c-.35-2,1.2-4-.71-6-2.66-2.77-2.18-5.74,1-8.34.71-.59.85-.75.2-1.35-1.73-1.57-.85-4.09-2.62-5.7-.37-.34.13-.94.59-1.16,2.17-1.06,1.56-2.5,1.14-4.1-.3-1.14-1.45-1.71-1.81-2.61a3.55,3.55,0,0,1,.51-3.33c.87-1.39.65-3.25,1.81-4.69.34-.43.3-.64-.27-1-1.37-1-3.81-1-4-3.13a2.2,2.2,0,0,0-.94-.12c-3.91.45-8.36-2.49-8.61-5.84-.14-1.83-.51-3.52-2.42-4.52a21.47,21.47,0,0,0-6.73-2c-2.31-.34-4-1-3.74-3.44.14-1.2-.31-1.73-2-1.56a9,9,0,0,1-3.78-.76c-2.87-1-6-1.86-6.11-5.35,0-1.75-1.77-1.13-2.55-.83-2.12.82-1.84,3.16-3.47,4.45-.69.53.41,1.17.8,1.73.83,1.19,1.17,2.24-1.79,2.56,2.54-1.09,1.52-1.68.41-2.43s-2.71-1.63-1.32-3.31c.14-.17,0-.62-.13-.82s-.66-.09-.93.09c-1,.64-2.18,1.3-2.53,2.3-.19.54.46,1.42,1,2a6.57,6.57,0,0,1,1.45,2.9c.58,2-.35,3.48-2.66,4.42,0-.31-.1-.46-.05-.58,1.59-3.23.91-4.45-2.92-5.33a2.2,2.2,0,0,1-1.91-1.95c0-.39-.08-.82-.07-1.24-1.13,0-1.43.6-1.27,1.64.35,2.41-1.24,3.15-3.4,3.58a19.59,19.59,0,0,0-6.26,2.24c-1.77,1.07-2.06,2.78-2.13,4.61-.12,3.36-4.2,6.47-7.9,6.18a2,2,0,0,0-.88.15c-.06,2.14-2.35,2.27-3.6,3.29-.53.43-.56.64-.22,1.06,1.14,1.39,1,3.26,1.86,4.62a3.73,3.73,0,0,1,.59,3.3c-.3.91-1.37,1.53-1.61,2.68-.34,1.62-.86,3.08,1.21,4,.44.21.93.78.59,1.13-1.6,1.69-.69,4.17-2.26,5.81-.6.62-.46.78.23,1.33a10.51,10.51,0,0,1,2.72,4.55c.33,1.29-.21,1-.23,4.36,0,2.27.23,3.93.18,3.94s-.11-.31,0-.36.56.29.75.68c.34.68-.15,1.22-.15,1.83,0,1.51,2.35,2,3.65,3.41,1.75,1.91-.38,5.1-3.24,5.48-.86.11-2.2-.53-2.28,1s-.73,2.93.67,4.11c1.09.93,2.17.2,3.27-.1.76-.2,1.15-.78,1.78-1.15a5.45,5.45,0,0,1-5.81,3.46c-3.44-.32-5.36-2.31-5.68-6.09-1.67,1.52-3.79,1.37-5.78,1.4-2.9,0-2.76-2.08-2.94-3.9-6.89,3.58-7.41,4.1-6.65,6.91-1.88-1-1.78-2.23-.87-3.67.49-.76,1.5-1.27,1.4-2.33,1.72-.75,2.75-2.13,2.4-3.72-.29-1.3-1.38-2.55-3.68-2.54,2.24,1.95.73,4.12,1.15,6.08-1,.4-1.36,1.5-2.44,1.83-1.38.42-2.91,1-3.93-.25s-.61-2.57.51-3.67c.74.11.52.56.52.89,0,.66-.27,1.59.77,1.63s1.32-.82,1.37-1.63a3.92,3.92,0,0,0-1.82-3.61c-1.21-.78-1.81.56-2.69,1-1.89,1-3.85-.15-5.8-.11a11,11,0,0,1-2.37,0,2.29,2.29,0,0,1-1.58-2.38c0-1-.52-2.23,1.22-2.57.58-.11,1.58,0,1.13-1-.38-.83-1.07-.93-2.05-.58-3,1-5.75-.52-5.93-3.35,0-.81,0-1.27-1.17-1.09a4.34,4.34,0,0,1-1.84-.59c-1-.38-2.58.25-2.82-1.31-.2-1.34-.44-2.6,1.27-3.58,1.37-.78,1.34-2.32.17-3.4a2.44,2.44,0,0,0-3.16,0c-1.5,1.23-1,2.69.37,4.38a5.67,5.67,0,0,1-4-4.71,2.47,2.47,0,0,1,1.18-2.7,4.54,4.54,0,0,1,2.76-.72c1.22-.12,1.87-.32,1.73-1.58-.19-1.69-1.13-.35-1.72-.42-1.92-.23-4.11-.5-5.06-2.06s-.41-3.75.51-5.5c.49-.93,1.58-1,2.64-.91,1.33.12,2.67.2,4,.29a2.25,2.25,0,0,0,2.47-1.66,16.27,16.27,0,0,1-3.09.06c-1.78-.29-4.27.36-3.74-2.91.24-1.53-.66-3.26.33-4.84a.88.88,0,0,0-.1-1.26c-.61-.45-1.16,0-1.52.36a12.15,12.15,0,0,0-1.4,1.87c-1.46,2.19-2.82,2.64-4.83,1.56a3.56,3.56,0,0,1-1.46-5.18,4.85,4.85,0,0,1,1.24-1.42c1.82-1.12,2.15-3.3,4-4.57-2.11-.56-3.05.66-3.76,1.9a2.76,2.76,0,0,1-2.71,1.55c-1.44,0-1.65-1-2.1-1.92a6,6,0,0,1-.27-.64C300.86,99.75,300.31,98.8,300.62,98.52Z" transform="translate(-66.28 -3.27)"/></svg>